G04 #@! TF.FileFunction,Paste,Top*
%FSLAX46Y46*%
G04 Gerber Fmt 4.6, Leading zero omitted, Abs format (unit mm)*
G04 Created by KiCad (PCBNEW LL-2015-09-25-git:d09c0a2-llkicadgr) date Fri 25 Sep 2015 11:15:43 PM EEST*
%MOMM*%
G01*
G04 APERTURE LIST*
%ADD10C,0.150000*%
%ADD11R,0.460000X0.560000*%
%ADD12R,0.560000X0.460000*%
%ADD13R,0.757560X0.757560*%
%ADD14R,0.560000X0.360000*%
%ADD15R,0.660000X0.210000*%
%ADD16R,0.210000X0.660000*%
%ADD17R,1.060000X1.060000*%
%ADD18R,0.360000X0.660000*%
G04 APERTURE END LIST*
D10*
D11*
X146500000Y-107950000D03*
X146500000Y-109050000D03*
X151500000Y-104800000D03*
X151500000Y-103700000D03*
D12*
X143550000Y-106750000D03*
X142450000Y-106750000D03*
X143550000Y-105500000D03*
X142450000Y-105500000D03*
D13*
X144500000Y-109000700D03*
X144500000Y-110499300D03*
D14*
X143000000Y-108050000D03*
X143000000Y-108950000D03*
X149750000Y-109300000D03*
X149750000Y-110200000D03*
X153250000Y-109300000D03*
X153250000Y-110200000D03*
D15*
X146000000Y-103750000D03*
X146000000Y-104250000D03*
X146000000Y-104750000D03*
X146000000Y-105250000D03*
X146000000Y-105750000D03*
X146000000Y-106250000D03*
D16*
X146750000Y-107000000D03*
X147250000Y-107000000D03*
X147750000Y-107000000D03*
X148250000Y-107000000D03*
X148750000Y-107000000D03*
X149250000Y-107000000D03*
D15*
X150000000Y-106250000D03*
X150000000Y-105750000D03*
X150000000Y-105250000D03*
X150000000Y-104750000D03*
X150000000Y-104250000D03*
X150000000Y-103750000D03*
D16*
X149250000Y-103000000D03*
X148750000Y-103000000D03*
X148250000Y-103000000D03*
X147750000Y-103000000D03*
X147250000Y-103000000D03*
X146750000Y-103000000D03*
D17*
X147350000Y-104350000D03*
X148650000Y-104350000D03*
X148650000Y-105650000D03*
X147350000Y-105650000D03*
D18*
X151150000Y-110400000D03*
X151850000Y-110400000D03*
X151150000Y-109100000D03*
X151850000Y-109100000D03*
M02*
