%FSLAX45Y45*%
G04 Gerber Fmt 4.5, Leading zero omitted, Abs format (unit mm)*
G04 Created by KiCad (PCBNEW LL-2015-09-25-git:d09c0a2-llkicadgr) date Fri 25 Sep 2015 11:14:16 PM EEST*
%MOMM*%
G01*
G04 APERTURE LIST*
%ADD10C,0.127000*%
%ADD11C,0.100000*%
%ADD12C,0.200000*%
%ADD13C,0.300000*%
G04 APERTURE END LIST*
D10*
D11*
X12900000Y-11400000D02*
X12900000Y-9600000D01*
X16100000Y-11400000D02*
X12900000Y-11400000D01*
X16100000Y-9600000D02*
X16100000Y-11400000D01*
X12900000Y-9600000D02*
X16100000Y-9600000D01*
D12*
X14130000Y-10530000D02*
X14170000Y-10570000D01*
X14170000Y-10530000D02*
X14130000Y-10570000D01*
X14130000Y-10655000D02*
X14170000Y-10695000D01*
X14170000Y-10655000D02*
X14130000Y-10695000D01*
X14430000Y-11130000D02*
X14470000Y-11170000D01*
X14470000Y-11130000D02*
X14430000Y-11170000D01*
X14630000Y-10980000D02*
X14670000Y-11020000D01*
X14670000Y-10980000D02*
X14630000Y-11020000D01*
X14705000Y-10405000D02*
X14745000Y-10445000D01*
X14745000Y-10405000D02*
X14705000Y-10445000D01*
X14705000Y-10555000D02*
X14745000Y-10595000D01*
X14745000Y-10555000D02*
X14705000Y-10595000D01*
X14855000Y-10405000D02*
X14895000Y-10445000D01*
X14895000Y-10405000D02*
X14855000Y-10445000D01*
X14855000Y-10555000D02*
X14895000Y-10595000D01*
X14895000Y-10555000D02*
X14855000Y-10595000D01*
X15130000Y-10255000D02*
X15170000Y-10295000D01*
X15170000Y-10255000D02*
X15130000Y-10295000D01*
X13740742Y-10371000D02*
G75*
G03X13740742Y-10371000I-40640J0D01*
G01*
X13740742Y-10625000D02*
G75*
G03X13740742Y-10625000I-40640J0D01*
G01*
X13940640Y-10371000D02*
G75*
G03X13940640Y-10371000I-40640J0D01*
G01*
X13940640Y-10625000D02*
G75*
G03X13940640Y-10625000I-40640J0D01*
G01*
X15700000Y-10074200D02*
X15700000Y-10175800D01*
X15649200Y-10125000D02*
X15750800Y-10125000D01*
X15700000Y-10328200D02*
X15700000Y-10429800D01*
X15649200Y-10379000D02*
X15750800Y-10379000D01*
X15700000Y-10582200D02*
X15700000Y-10683800D01*
X15649200Y-10633000D02*
X15750800Y-10633000D01*
X15700000Y-10836200D02*
X15700000Y-10937800D01*
X15649200Y-10887000D02*
X15750800Y-10887000D01*
X13511462Y-9979414D02*
X13511462Y-9816690D01*
X13348738Y-9816690D01*
X13348738Y-9979414D01*
X13511462Y-9979414D01*
X13511462Y-11179310D02*
X13511462Y-11016586D01*
X13348738Y-11016586D01*
X13348738Y-11179310D01*
X13511462Y-11179310D01*
D13*
X13166428Y-11870714D02*
X13166428Y-11570714D01*
X13237857Y-11570714D01*
X13280714Y-11585000D01*
X13309286Y-11613571D01*
X13323571Y-11642143D01*
X13337857Y-11699286D01*
X13337857Y-11742143D01*
X13323571Y-11799286D01*
X13309286Y-11827857D01*
X13280714Y-11856429D01*
X13237857Y-11870714D01*
X13166428Y-11870714D01*
X13466428Y-11870714D02*
X13466428Y-11670714D01*
X13466428Y-11727857D02*
X13480714Y-11699286D01*
X13495000Y-11685000D01*
X13523571Y-11670714D01*
X13552143Y-11670714D01*
X13652143Y-11870714D02*
X13652143Y-11670714D01*
X13652143Y-11570714D02*
X13637857Y-11585000D01*
X13652143Y-11599286D01*
X13666428Y-11585000D01*
X13652143Y-11570714D01*
X13652143Y-11599286D01*
X13837857Y-11870714D02*
X13809286Y-11856429D01*
X13795000Y-11827857D01*
X13795000Y-11570714D01*
X13995000Y-11870714D02*
X13966428Y-11856429D01*
X13952143Y-11827857D01*
X13952143Y-11570714D01*
X14337857Y-11870714D02*
X14337857Y-11570714D01*
X14437857Y-11785000D01*
X14537857Y-11570714D01*
X14537857Y-11870714D01*
X14809286Y-11870714D02*
X14809286Y-11713571D01*
X14795000Y-11685000D01*
X14766428Y-11670714D01*
X14709286Y-11670714D01*
X14680714Y-11685000D01*
X14809286Y-11856429D02*
X14780714Y-11870714D01*
X14709286Y-11870714D01*
X14680714Y-11856429D01*
X14666428Y-11827857D01*
X14666428Y-11799286D01*
X14680714Y-11770714D01*
X14709286Y-11756429D01*
X14780714Y-11756429D01*
X14809286Y-11742143D01*
X14952143Y-11670714D02*
X14952143Y-11970714D01*
X14952143Y-11685000D02*
X14980714Y-11670714D01*
X15037857Y-11670714D01*
X15066428Y-11685000D01*
X15080714Y-11699286D01*
X15095000Y-11727857D01*
X15095000Y-11813571D01*
X15080714Y-11842143D01*
X15066428Y-11856429D01*
X15037857Y-11870714D01*
X14980714Y-11870714D01*
X14952143Y-11856429D01*
X15223571Y-11842143D02*
X15237857Y-11856429D01*
X15223571Y-11870714D01*
X15209286Y-11856429D01*
X15223571Y-11842143D01*
X15223571Y-11870714D01*
X15223571Y-11685000D02*
X15237857Y-11699286D01*
X15223571Y-11713571D01*
X15209286Y-11699286D01*
X15223571Y-11685000D01*
X15223571Y-11713571D01*
X12855000Y-12345000D02*
X12895000Y-12385000D01*
X12895000Y-12345000D02*
X12855000Y-12385000D01*
X13223571Y-12200714D02*
X13252143Y-12200714D01*
X13280714Y-12215000D01*
X13295000Y-12229286D01*
X13309286Y-12257857D01*
X13323571Y-12315000D01*
X13323571Y-12386429D01*
X13309286Y-12443571D01*
X13295000Y-12472143D01*
X13280714Y-12486429D01*
X13252143Y-12500714D01*
X13223571Y-12500714D01*
X13195000Y-12486429D01*
X13180714Y-12472143D01*
X13166428Y-12443571D01*
X13152143Y-12386429D01*
X13152143Y-12315000D01*
X13166428Y-12257857D01*
X13180714Y-12229286D01*
X13195000Y-12215000D01*
X13223571Y-12200714D01*
X13452143Y-12472143D02*
X13466428Y-12486429D01*
X13452143Y-12500714D01*
X13437857Y-12486429D01*
X13452143Y-12472143D01*
X13452143Y-12500714D01*
X13723571Y-12300714D02*
X13723571Y-12500714D01*
X13652143Y-12186429D02*
X13580714Y-12400714D01*
X13766428Y-12400714D01*
X13937857Y-12200714D02*
X13966428Y-12200714D01*
X13995000Y-12215000D01*
X14009286Y-12229286D01*
X14023571Y-12257857D01*
X14037857Y-12315000D01*
X14037857Y-12386429D01*
X14023571Y-12443571D01*
X14009286Y-12472143D01*
X13995000Y-12486429D01*
X13966428Y-12500714D01*
X13937857Y-12500714D01*
X13909286Y-12486429D01*
X13895000Y-12472143D01*
X13880714Y-12443571D01*
X13866428Y-12386429D01*
X13866428Y-12315000D01*
X13880714Y-12257857D01*
X13895000Y-12229286D01*
X13909286Y-12215000D01*
X13937857Y-12200714D01*
X14166428Y-12500714D02*
X14166428Y-12300714D01*
X14166428Y-12329286D02*
X14180714Y-12315000D01*
X14209286Y-12300714D01*
X14252143Y-12300714D01*
X14280714Y-12315000D01*
X14295000Y-12343571D01*
X14295000Y-12500714D01*
X14295000Y-12343571D02*
X14309286Y-12315000D01*
X14337857Y-12300714D01*
X14380714Y-12300714D01*
X14409286Y-12315000D01*
X14423571Y-12343571D01*
X14423571Y-12500714D01*
X14566428Y-12500714D02*
X14566428Y-12300714D01*
X14566428Y-12329286D02*
X14580714Y-12315000D01*
X14609286Y-12300714D01*
X14652143Y-12300714D01*
X14680714Y-12315000D01*
X14695000Y-12343571D01*
X14695000Y-12500714D01*
X14695000Y-12343571D02*
X14709286Y-12315000D01*
X14737857Y-12300714D01*
X14780714Y-12300714D01*
X14809286Y-12315000D01*
X14823571Y-12343571D01*
X14823571Y-12500714D01*
X15409286Y-12186429D02*
X15152143Y-12572143D01*
X15795000Y-12200714D02*
X15823571Y-12200714D01*
X15852143Y-12215000D01*
X15866428Y-12229286D01*
X15880714Y-12257857D01*
X15895000Y-12315000D01*
X15895000Y-12386429D01*
X15880714Y-12443571D01*
X15866428Y-12472143D01*
X15852143Y-12486429D01*
X15823571Y-12500714D01*
X15795000Y-12500714D01*
X15766428Y-12486429D01*
X15752143Y-12472143D01*
X15737857Y-12443571D01*
X15723571Y-12386429D01*
X15723571Y-12315000D01*
X15737857Y-12257857D01*
X15752143Y-12229286D01*
X15766428Y-12215000D01*
X15795000Y-12200714D01*
X16023571Y-12472143D02*
X16037857Y-12486429D01*
X16023571Y-12500714D01*
X16009286Y-12486429D01*
X16023571Y-12472143D01*
X16023571Y-12500714D01*
X16223571Y-12200714D02*
X16252143Y-12200714D01*
X16280714Y-12215000D01*
X16295000Y-12229286D01*
X16309285Y-12257857D01*
X16323571Y-12315000D01*
X16323571Y-12386429D01*
X16309285Y-12443571D01*
X16295000Y-12472143D01*
X16280714Y-12486429D01*
X16252143Y-12500714D01*
X16223571Y-12500714D01*
X16195000Y-12486429D01*
X16180714Y-12472143D01*
X16166428Y-12443571D01*
X16152143Y-12386429D01*
X16152143Y-12315000D01*
X16166428Y-12257857D01*
X16180714Y-12229286D01*
X16195000Y-12215000D01*
X16223571Y-12200714D01*
X16609285Y-12500714D02*
X16437857Y-12500714D01*
X16523571Y-12500714D02*
X16523571Y-12200714D01*
X16495000Y-12243571D01*
X16466428Y-12272143D01*
X16437857Y-12286429D01*
X16866428Y-12200714D02*
X16809286Y-12200714D01*
X16780714Y-12215000D01*
X16766428Y-12229286D01*
X16737857Y-12272143D01*
X16723571Y-12329286D01*
X16723571Y-12443571D01*
X16737857Y-12472143D01*
X16752143Y-12486429D01*
X16780714Y-12500714D01*
X16837857Y-12500714D01*
X16866428Y-12486429D01*
X16880714Y-12472143D01*
X16895000Y-12443571D01*
X16895000Y-12372143D01*
X16880714Y-12343571D01*
X16866428Y-12329286D01*
X16837857Y-12315000D01*
X16780714Y-12315000D01*
X16752143Y-12329286D01*
X16737857Y-12343571D01*
X16723571Y-12372143D01*
X17009286Y-12200714D02*
X17009286Y-12257857D01*
X17123571Y-12200714D02*
X17123571Y-12257857D01*
X17566428Y-12615000D02*
X17552143Y-12600714D01*
X17523571Y-12557857D01*
X17509286Y-12529286D01*
X17495000Y-12486429D01*
X17480714Y-12415000D01*
X17480714Y-12357857D01*
X17495000Y-12286429D01*
X17509286Y-12243571D01*
X17523571Y-12215000D01*
X17552143Y-12172143D01*
X17566428Y-12157857D01*
X17695000Y-12500714D02*
X17752143Y-12500714D01*
X17780714Y-12486429D01*
X17795000Y-12472143D01*
X17823571Y-12429286D01*
X17837857Y-12372143D01*
X17837857Y-12257857D01*
X17823571Y-12229286D01*
X17809286Y-12215000D01*
X17780714Y-12200714D01*
X17723571Y-12200714D01*
X17695000Y-12215000D01*
X17680714Y-12229286D01*
X17666428Y-12257857D01*
X17666428Y-12329286D01*
X17680714Y-12357857D01*
X17695000Y-12372143D01*
X17723571Y-12386429D01*
X17780714Y-12386429D01*
X17809286Y-12372143D01*
X17823571Y-12357857D01*
X17837857Y-12329286D01*
X18195000Y-12500714D02*
X18195000Y-12200714D01*
X18323571Y-12500714D02*
X18323571Y-12343571D01*
X18309286Y-12315000D01*
X18280714Y-12300714D01*
X18237857Y-12300714D01*
X18209286Y-12315000D01*
X18195000Y-12329286D01*
X18509286Y-12500714D02*
X18480714Y-12486429D01*
X18466428Y-12472143D01*
X18452143Y-12443571D01*
X18452143Y-12357857D01*
X18466428Y-12329286D01*
X18480714Y-12315000D01*
X18509286Y-12300714D01*
X18552143Y-12300714D01*
X18580714Y-12315000D01*
X18595000Y-12329286D01*
X18609286Y-12357857D01*
X18609286Y-12443571D01*
X18595000Y-12472143D01*
X18580714Y-12486429D01*
X18552143Y-12500714D01*
X18509286Y-12500714D01*
X18780714Y-12500714D02*
X18752143Y-12486429D01*
X18737857Y-12457857D01*
X18737857Y-12200714D01*
X19009286Y-12486429D02*
X18980714Y-12500714D01*
X18923571Y-12500714D01*
X18895000Y-12486429D01*
X18880714Y-12457857D01*
X18880714Y-12343571D01*
X18895000Y-12315000D01*
X18923571Y-12300714D01*
X18980714Y-12300714D01*
X19009286Y-12315000D01*
X19023571Y-12343571D01*
X19023571Y-12372143D01*
X18880714Y-12400714D01*
X19137857Y-12486429D02*
X19166429Y-12500714D01*
X19223571Y-12500714D01*
X19252143Y-12486429D01*
X19266429Y-12457857D01*
X19266429Y-12443571D01*
X19252143Y-12415000D01*
X19223571Y-12400714D01*
X19180714Y-12400714D01*
X19152143Y-12386429D01*
X19137857Y-12357857D01*
X19137857Y-12343571D01*
X19152143Y-12315000D01*
X19180714Y-12300714D01*
X19223571Y-12300714D01*
X19252143Y-12315000D01*
X19366428Y-12615000D02*
X19380714Y-12600714D01*
X19409286Y-12557857D01*
X19423571Y-12529286D01*
X19437857Y-12486429D01*
X19452143Y-12415000D01*
X19452143Y-12357857D01*
X19437857Y-12286429D01*
X19423571Y-12243571D01*
X19409286Y-12215000D01*
X19380714Y-12172143D01*
X19366428Y-12157857D01*
X12895000Y-12761000D02*
G75*
G03X12895000Y-12761000I-40640J0D01*
G01*
X13223571Y-12596714D02*
X13252143Y-12596714D01*
X13280714Y-12611000D01*
X13295000Y-12625286D01*
X13309286Y-12653857D01*
X13323571Y-12711000D01*
X13323571Y-12782429D01*
X13309286Y-12839571D01*
X13295000Y-12868143D01*
X13280714Y-12882429D01*
X13252143Y-12896714D01*
X13223571Y-12896714D01*
X13195000Y-12882429D01*
X13180714Y-12868143D01*
X13166428Y-12839571D01*
X13152143Y-12782429D01*
X13152143Y-12711000D01*
X13166428Y-12653857D01*
X13180714Y-12625286D01*
X13195000Y-12611000D01*
X13223571Y-12596714D01*
X13452143Y-12868143D02*
X13466428Y-12882429D01*
X13452143Y-12896714D01*
X13437857Y-12882429D01*
X13452143Y-12868143D01*
X13452143Y-12896714D01*
X13637857Y-12725286D02*
X13609286Y-12711000D01*
X13595000Y-12696714D01*
X13580714Y-12668143D01*
X13580714Y-12653857D01*
X13595000Y-12625286D01*
X13609286Y-12611000D01*
X13637857Y-12596714D01*
X13695000Y-12596714D01*
X13723571Y-12611000D01*
X13737857Y-12625286D01*
X13752143Y-12653857D01*
X13752143Y-12668143D01*
X13737857Y-12696714D01*
X13723571Y-12711000D01*
X13695000Y-12725286D01*
X13637857Y-12725286D01*
X13609286Y-12739571D01*
X13595000Y-12753857D01*
X13580714Y-12782429D01*
X13580714Y-12839571D01*
X13595000Y-12868143D01*
X13609286Y-12882429D01*
X13637857Y-12896714D01*
X13695000Y-12896714D01*
X13723571Y-12882429D01*
X13737857Y-12868143D01*
X13752143Y-12839571D01*
X13752143Y-12782429D01*
X13737857Y-12753857D01*
X13723571Y-12739571D01*
X13695000Y-12725286D01*
X14037857Y-12896714D02*
X13866428Y-12896714D01*
X13952143Y-12896714D02*
X13952143Y-12596714D01*
X13923571Y-12639571D01*
X13895000Y-12668143D01*
X13866428Y-12682429D01*
X14166428Y-12896714D02*
X14166428Y-12696714D01*
X14166428Y-12725286D02*
X14180714Y-12711000D01*
X14209286Y-12696714D01*
X14252143Y-12696714D01*
X14280714Y-12711000D01*
X14295000Y-12739571D01*
X14295000Y-12896714D01*
X14295000Y-12739571D02*
X14309286Y-12711000D01*
X14337857Y-12696714D01*
X14380714Y-12696714D01*
X14409286Y-12711000D01*
X14423571Y-12739571D01*
X14423571Y-12896714D01*
X14566428Y-12896714D02*
X14566428Y-12696714D01*
X14566428Y-12725286D02*
X14580714Y-12711000D01*
X14609286Y-12696714D01*
X14652143Y-12696714D01*
X14680714Y-12711000D01*
X14695000Y-12739571D01*
X14695000Y-12896714D01*
X14695000Y-12739571D02*
X14709286Y-12711000D01*
X14737857Y-12696714D01*
X14780714Y-12696714D01*
X14809286Y-12711000D01*
X14823571Y-12739571D01*
X14823571Y-12896714D01*
X15409286Y-12582429D02*
X15152143Y-12968143D01*
X15795000Y-12596714D02*
X15823571Y-12596714D01*
X15852143Y-12611000D01*
X15866428Y-12625286D01*
X15880714Y-12653857D01*
X15895000Y-12711000D01*
X15895000Y-12782429D01*
X15880714Y-12839571D01*
X15866428Y-12868143D01*
X15852143Y-12882429D01*
X15823571Y-12896714D01*
X15795000Y-12896714D01*
X15766428Y-12882429D01*
X15752143Y-12868143D01*
X15737857Y-12839571D01*
X15723571Y-12782429D01*
X15723571Y-12711000D01*
X15737857Y-12653857D01*
X15752143Y-12625286D01*
X15766428Y-12611000D01*
X15795000Y-12596714D01*
X16023571Y-12868143D02*
X16037857Y-12882429D01*
X16023571Y-12896714D01*
X16009286Y-12882429D01*
X16023571Y-12868143D01*
X16023571Y-12896714D01*
X16223571Y-12596714D02*
X16252143Y-12596714D01*
X16280714Y-12611000D01*
X16295000Y-12625286D01*
X16309285Y-12653857D01*
X16323571Y-12711000D01*
X16323571Y-12782429D01*
X16309285Y-12839571D01*
X16295000Y-12868143D01*
X16280714Y-12882429D01*
X16252143Y-12896714D01*
X16223571Y-12896714D01*
X16195000Y-12882429D01*
X16180714Y-12868143D01*
X16166428Y-12839571D01*
X16152143Y-12782429D01*
X16152143Y-12711000D01*
X16166428Y-12653857D01*
X16180714Y-12625286D01*
X16195000Y-12611000D01*
X16223571Y-12596714D01*
X16423571Y-12596714D02*
X16609285Y-12596714D01*
X16509285Y-12711000D01*
X16552143Y-12711000D01*
X16580714Y-12725286D01*
X16595000Y-12739571D01*
X16609285Y-12768143D01*
X16609285Y-12839571D01*
X16595000Y-12868143D01*
X16580714Y-12882429D01*
X16552143Y-12896714D01*
X16466428Y-12896714D01*
X16437857Y-12882429D01*
X16423571Y-12868143D01*
X16723571Y-12625286D02*
X16737857Y-12611000D01*
X16766428Y-12596714D01*
X16837857Y-12596714D01*
X16866428Y-12611000D01*
X16880714Y-12625286D01*
X16895000Y-12653857D01*
X16895000Y-12682429D01*
X16880714Y-12725286D01*
X16709285Y-12896714D01*
X16895000Y-12896714D01*
X17009286Y-12596714D02*
X17009286Y-12653857D01*
X17123571Y-12596714D02*
X17123571Y-12653857D01*
X17566428Y-13011000D02*
X17552143Y-12996714D01*
X17523571Y-12953857D01*
X17509286Y-12925286D01*
X17495000Y-12882429D01*
X17480714Y-12811000D01*
X17480714Y-12753857D01*
X17495000Y-12682429D01*
X17509286Y-12639571D01*
X17523571Y-12611000D01*
X17552143Y-12568143D01*
X17566428Y-12553857D01*
X17809286Y-12696714D02*
X17809286Y-12896714D01*
X17737857Y-12582429D02*
X17666428Y-12796714D01*
X17852143Y-12796714D01*
X18195000Y-12896714D02*
X18195000Y-12596714D01*
X18323571Y-12896714D02*
X18323571Y-12739571D01*
X18309286Y-12711000D01*
X18280714Y-12696714D01*
X18237857Y-12696714D01*
X18209286Y-12711000D01*
X18195000Y-12725286D01*
X18509286Y-12896714D02*
X18480714Y-12882429D01*
X18466428Y-12868143D01*
X18452143Y-12839571D01*
X18452143Y-12753857D01*
X18466428Y-12725286D01*
X18480714Y-12711000D01*
X18509286Y-12696714D01*
X18552143Y-12696714D01*
X18580714Y-12711000D01*
X18595000Y-12725286D01*
X18609286Y-12753857D01*
X18609286Y-12839571D01*
X18595000Y-12868143D01*
X18580714Y-12882429D01*
X18552143Y-12896714D01*
X18509286Y-12896714D01*
X18780714Y-12896714D02*
X18752143Y-12882429D01*
X18737857Y-12853857D01*
X18737857Y-12596714D01*
X19009286Y-12882429D02*
X18980714Y-12896714D01*
X18923571Y-12896714D01*
X18895000Y-12882429D01*
X18880714Y-12853857D01*
X18880714Y-12739571D01*
X18895000Y-12711000D01*
X18923571Y-12696714D01*
X18980714Y-12696714D01*
X19009286Y-12711000D01*
X19023571Y-12739571D01*
X19023571Y-12768143D01*
X18880714Y-12796714D01*
X19137857Y-12882429D02*
X19166429Y-12896714D01*
X19223571Y-12896714D01*
X19252143Y-12882429D01*
X19266429Y-12853857D01*
X19266429Y-12839571D01*
X19252143Y-12811000D01*
X19223571Y-12796714D01*
X19180714Y-12796714D01*
X19152143Y-12782429D01*
X19137857Y-12753857D01*
X19137857Y-12739571D01*
X19152143Y-12711000D01*
X19180714Y-12696714D01*
X19223571Y-12696714D01*
X19252143Y-12711000D01*
X19366428Y-13011000D02*
X19380714Y-12996714D01*
X19409286Y-12953857D01*
X19423571Y-12925286D01*
X19437857Y-12882429D01*
X19452143Y-12811000D01*
X19452143Y-12753857D01*
X19437857Y-12682429D01*
X19423571Y-12639571D01*
X19409286Y-12611000D01*
X19380714Y-12568143D01*
X19366428Y-12553857D01*
X12844200Y-13106200D02*
X12844200Y-13207800D01*
X12793400Y-13157000D02*
X12895000Y-13157000D01*
X13323571Y-13292714D02*
X13152143Y-13292714D01*
X13237857Y-13292714D02*
X13237857Y-12992714D01*
X13209286Y-13035571D01*
X13180714Y-13064143D01*
X13152143Y-13078429D01*
X13452143Y-13264143D02*
X13466428Y-13278429D01*
X13452143Y-13292714D01*
X13437857Y-13278429D01*
X13452143Y-13264143D01*
X13452143Y-13292714D01*
X13652143Y-12992714D02*
X13680714Y-12992714D01*
X13709286Y-13007000D01*
X13723571Y-13021286D01*
X13737857Y-13049857D01*
X13752143Y-13107000D01*
X13752143Y-13178429D01*
X13737857Y-13235571D01*
X13723571Y-13264143D01*
X13709286Y-13278429D01*
X13680714Y-13292714D01*
X13652143Y-13292714D01*
X13623571Y-13278429D01*
X13609286Y-13264143D01*
X13595000Y-13235571D01*
X13580714Y-13178429D01*
X13580714Y-13107000D01*
X13595000Y-13049857D01*
X13609286Y-13021286D01*
X13623571Y-13007000D01*
X13652143Y-12992714D01*
X13866428Y-13021286D02*
X13880714Y-13007000D01*
X13909286Y-12992714D01*
X13980714Y-12992714D01*
X14009286Y-13007000D01*
X14023571Y-13021286D01*
X14037857Y-13049857D01*
X14037857Y-13078429D01*
X14023571Y-13121286D01*
X13852143Y-13292714D01*
X14037857Y-13292714D01*
X14166428Y-13292714D02*
X14166428Y-13092714D01*
X14166428Y-13121286D02*
X14180714Y-13107000D01*
X14209286Y-13092714D01*
X14252143Y-13092714D01*
X14280714Y-13107000D01*
X14295000Y-13135571D01*
X14295000Y-13292714D01*
X14295000Y-13135571D02*
X14309286Y-13107000D01*
X14337857Y-13092714D01*
X14380714Y-13092714D01*
X14409286Y-13107000D01*
X14423571Y-13135571D01*
X14423571Y-13292714D01*
X14566428Y-13292714D02*
X14566428Y-13092714D01*
X14566428Y-13121286D02*
X14580714Y-13107000D01*
X14609286Y-13092714D01*
X14652143Y-13092714D01*
X14680714Y-13107000D01*
X14695000Y-13135571D01*
X14695000Y-13292714D01*
X14695000Y-13135571D02*
X14709286Y-13107000D01*
X14737857Y-13092714D01*
X14780714Y-13092714D01*
X14809286Y-13107000D01*
X14823571Y-13135571D01*
X14823571Y-13292714D01*
X15409286Y-12978429D02*
X15152143Y-13364143D01*
X15795000Y-12992714D02*
X15823571Y-12992714D01*
X15852143Y-13007000D01*
X15866428Y-13021286D01*
X15880714Y-13049857D01*
X15895000Y-13107000D01*
X15895000Y-13178429D01*
X15880714Y-13235571D01*
X15866428Y-13264143D01*
X15852143Y-13278429D01*
X15823571Y-13292714D01*
X15795000Y-13292714D01*
X15766428Y-13278429D01*
X15752143Y-13264143D01*
X15737857Y-13235571D01*
X15723571Y-13178429D01*
X15723571Y-13107000D01*
X15737857Y-13049857D01*
X15752143Y-13021286D01*
X15766428Y-13007000D01*
X15795000Y-12992714D01*
X16023571Y-13264143D02*
X16037857Y-13278429D01*
X16023571Y-13292714D01*
X16009286Y-13278429D01*
X16023571Y-13264143D01*
X16023571Y-13292714D01*
X16223571Y-12992714D02*
X16252143Y-12992714D01*
X16280714Y-13007000D01*
X16295000Y-13021286D01*
X16309285Y-13049857D01*
X16323571Y-13107000D01*
X16323571Y-13178429D01*
X16309285Y-13235571D01*
X16295000Y-13264143D01*
X16280714Y-13278429D01*
X16252143Y-13292714D01*
X16223571Y-13292714D01*
X16195000Y-13278429D01*
X16180714Y-13264143D01*
X16166428Y-13235571D01*
X16152143Y-13178429D01*
X16152143Y-13107000D01*
X16166428Y-13049857D01*
X16180714Y-13021286D01*
X16195000Y-13007000D01*
X16223571Y-12992714D01*
X16580714Y-13092714D02*
X16580714Y-13292714D01*
X16509285Y-12978429D02*
X16437857Y-13192714D01*
X16623571Y-13192714D01*
X16795000Y-12992714D02*
X16823571Y-12992714D01*
X16852143Y-13007000D01*
X16866428Y-13021286D01*
X16880714Y-13049857D01*
X16895000Y-13107000D01*
X16895000Y-13178429D01*
X16880714Y-13235571D01*
X16866428Y-13264143D01*
X16852143Y-13278429D01*
X16823571Y-13292714D01*
X16795000Y-13292714D01*
X16766428Y-13278429D01*
X16752143Y-13264143D01*
X16737857Y-13235571D01*
X16723571Y-13178429D01*
X16723571Y-13107000D01*
X16737857Y-13049857D01*
X16752143Y-13021286D01*
X16766428Y-13007000D01*
X16795000Y-12992714D01*
X17009286Y-12992714D02*
X17009286Y-13049857D01*
X17123571Y-12992714D02*
X17123571Y-13049857D01*
X17566428Y-13407000D02*
X17552143Y-13392714D01*
X17523571Y-13349857D01*
X17509286Y-13321286D01*
X17495000Y-13278429D01*
X17480714Y-13207000D01*
X17480714Y-13149857D01*
X17495000Y-13078429D01*
X17509286Y-13035571D01*
X17523571Y-13007000D01*
X17552143Y-12964143D01*
X17566428Y-12949857D01*
X17809286Y-13092714D02*
X17809286Y-13292714D01*
X17737857Y-12978429D02*
X17666428Y-13192714D01*
X17852143Y-13192714D01*
X18195000Y-13292714D02*
X18195000Y-12992714D01*
X18323571Y-13292714D02*
X18323571Y-13135571D01*
X18309286Y-13107000D01*
X18280714Y-13092714D01*
X18237857Y-13092714D01*
X18209286Y-13107000D01*
X18195000Y-13121286D01*
X18509286Y-13292714D02*
X18480714Y-13278429D01*
X18466428Y-13264143D01*
X18452143Y-13235571D01*
X18452143Y-13149857D01*
X18466428Y-13121286D01*
X18480714Y-13107000D01*
X18509286Y-13092714D01*
X18552143Y-13092714D01*
X18580714Y-13107000D01*
X18595000Y-13121286D01*
X18609286Y-13149857D01*
X18609286Y-13235571D01*
X18595000Y-13264143D01*
X18580714Y-13278429D01*
X18552143Y-13292714D01*
X18509286Y-13292714D01*
X18780714Y-13292714D02*
X18752143Y-13278429D01*
X18737857Y-13249857D01*
X18737857Y-12992714D01*
X19009286Y-13278429D02*
X18980714Y-13292714D01*
X18923571Y-13292714D01*
X18895000Y-13278429D01*
X18880714Y-13249857D01*
X18880714Y-13135571D01*
X18895000Y-13107000D01*
X18923571Y-13092714D01*
X18980714Y-13092714D01*
X19009286Y-13107000D01*
X19023571Y-13135571D01*
X19023571Y-13164143D01*
X18880714Y-13192714D01*
X19137857Y-13278429D02*
X19166429Y-13292714D01*
X19223571Y-13292714D01*
X19252143Y-13278429D01*
X19266429Y-13249857D01*
X19266429Y-13235571D01*
X19252143Y-13207000D01*
X19223571Y-13192714D01*
X19180714Y-13192714D01*
X19152143Y-13178429D01*
X19137857Y-13149857D01*
X19137857Y-13135571D01*
X19152143Y-13107000D01*
X19180714Y-13092714D01*
X19223571Y-13092714D01*
X19252143Y-13107000D01*
X19366428Y-13407000D02*
X19380714Y-13392714D01*
X19409286Y-13349857D01*
X19423571Y-13321286D01*
X19437857Y-13278429D01*
X19452143Y-13207000D01*
X19452143Y-13149857D01*
X19437857Y-13078429D01*
X19423571Y-13035571D01*
X19409286Y-13007000D01*
X19380714Y-12964143D01*
X19366428Y-12949857D01*
X12861300Y-13634362D02*
X12861300Y-13471638D01*
X12698576Y-13471638D01*
X12698576Y-13634362D01*
X12861300Y-13634362D01*
X13152143Y-13417286D02*
X13166428Y-13403000D01*
X13195000Y-13388714D01*
X13266428Y-13388714D01*
X13295000Y-13403000D01*
X13309286Y-13417286D01*
X13323571Y-13445857D01*
X13323571Y-13474429D01*
X13309286Y-13517286D01*
X13137857Y-13688714D01*
X13323571Y-13688714D01*
X13452143Y-13660143D02*
X13466428Y-13674429D01*
X13452143Y-13688714D01*
X13437857Y-13674429D01*
X13452143Y-13660143D01*
X13452143Y-13688714D01*
X13566428Y-13388714D02*
X13752143Y-13388714D01*
X13652143Y-13503000D01*
X13695000Y-13503000D01*
X13723571Y-13517286D01*
X13737857Y-13531571D01*
X13752143Y-13560143D01*
X13752143Y-13631571D01*
X13737857Y-13660143D01*
X13723571Y-13674429D01*
X13695000Y-13688714D01*
X13609286Y-13688714D01*
X13580714Y-13674429D01*
X13566428Y-13660143D01*
X13937857Y-13388714D02*
X13966428Y-13388714D01*
X13995000Y-13403000D01*
X14009286Y-13417286D01*
X14023571Y-13445857D01*
X14037857Y-13503000D01*
X14037857Y-13574429D01*
X14023571Y-13631571D01*
X14009286Y-13660143D01*
X13995000Y-13674429D01*
X13966428Y-13688714D01*
X13937857Y-13688714D01*
X13909286Y-13674429D01*
X13895000Y-13660143D01*
X13880714Y-13631571D01*
X13866428Y-13574429D01*
X13866428Y-13503000D01*
X13880714Y-13445857D01*
X13895000Y-13417286D01*
X13909286Y-13403000D01*
X13937857Y-13388714D01*
X14166428Y-13688714D02*
X14166428Y-13488714D01*
X14166428Y-13517286D02*
X14180714Y-13503000D01*
X14209286Y-13488714D01*
X14252143Y-13488714D01*
X14280714Y-13503000D01*
X14295000Y-13531571D01*
X14295000Y-13688714D01*
X14295000Y-13531571D02*
X14309286Y-13503000D01*
X14337857Y-13488714D01*
X14380714Y-13488714D01*
X14409286Y-13503000D01*
X14423571Y-13531571D01*
X14423571Y-13688714D01*
X14566428Y-13688714D02*
X14566428Y-13488714D01*
X14566428Y-13517286D02*
X14580714Y-13503000D01*
X14609286Y-13488714D01*
X14652143Y-13488714D01*
X14680714Y-13503000D01*
X14695000Y-13531571D01*
X14695000Y-13688714D01*
X14695000Y-13531571D02*
X14709286Y-13503000D01*
X14737857Y-13488714D01*
X14780714Y-13488714D01*
X14809286Y-13503000D01*
X14823571Y-13531571D01*
X14823571Y-13688714D01*
X15409286Y-13374429D02*
X15152143Y-13760143D01*
X15795000Y-13388714D02*
X15823571Y-13388714D01*
X15852143Y-13403000D01*
X15866428Y-13417286D01*
X15880714Y-13445857D01*
X15895000Y-13503000D01*
X15895000Y-13574429D01*
X15880714Y-13631571D01*
X15866428Y-13660143D01*
X15852143Y-13674429D01*
X15823571Y-13688714D01*
X15795000Y-13688714D01*
X15766428Y-13674429D01*
X15752143Y-13660143D01*
X15737857Y-13631571D01*
X15723571Y-13574429D01*
X15723571Y-13503000D01*
X15737857Y-13445857D01*
X15752143Y-13417286D01*
X15766428Y-13403000D01*
X15795000Y-13388714D01*
X16023571Y-13660143D02*
X16037857Y-13674429D01*
X16023571Y-13688714D01*
X16009286Y-13674429D01*
X16023571Y-13660143D01*
X16023571Y-13688714D01*
X16223571Y-13388714D02*
X16252143Y-13388714D01*
X16280714Y-13403000D01*
X16295000Y-13417286D01*
X16309285Y-13445857D01*
X16323571Y-13503000D01*
X16323571Y-13574429D01*
X16309285Y-13631571D01*
X16295000Y-13660143D01*
X16280714Y-13674429D01*
X16252143Y-13688714D01*
X16223571Y-13688714D01*
X16195000Y-13674429D01*
X16180714Y-13660143D01*
X16166428Y-13631571D01*
X16152143Y-13574429D01*
X16152143Y-13503000D01*
X16166428Y-13445857D01*
X16180714Y-13417286D01*
X16195000Y-13403000D01*
X16223571Y-13388714D01*
X16466428Y-13688714D02*
X16523571Y-13688714D01*
X16552143Y-13674429D01*
X16566428Y-13660143D01*
X16595000Y-13617286D01*
X16609285Y-13560143D01*
X16609285Y-13445857D01*
X16595000Y-13417286D01*
X16580714Y-13403000D01*
X16552143Y-13388714D01*
X16495000Y-13388714D01*
X16466428Y-13403000D01*
X16452143Y-13417286D01*
X16437857Y-13445857D01*
X16437857Y-13517286D01*
X16452143Y-13545857D01*
X16466428Y-13560143D01*
X16495000Y-13574429D01*
X16552143Y-13574429D01*
X16580714Y-13560143D01*
X16595000Y-13545857D01*
X16609285Y-13517286D01*
X16895000Y-13688714D02*
X16723571Y-13688714D01*
X16809286Y-13688714D02*
X16809286Y-13388714D01*
X16780714Y-13431571D01*
X16752143Y-13460143D01*
X16723571Y-13474429D01*
X17009286Y-13388714D02*
X17009286Y-13445857D01*
X17123571Y-13388714D02*
X17123571Y-13445857D01*
X17566428Y-13803000D02*
X17552143Y-13788714D01*
X17523571Y-13745857D01*
X17509286Y-13717286D01*
X17495000Y-13674429D01*
X17480714Y-13603000D01*
X17480714Y-13545857D01*
X17495000Y-13474429D01*
X17509286Y-13431571D01*
X17523571Y-13403000D01*
X17552143Y-13360143D01*
X17566428Y-13345857D01*
X17666428Y-13417286D02*
X17680714Y-13403000D01*
X17709286Y-13388714D01*
X17780714Y-13388714D01*
X17809286Y-13403000D01*
X17823571Y-13417286D01*
X17837857Y-13445857D01*
X17837857Y-13474429D01*
X17823571Y-13517286D01*
X17652143Y-13688714D01*
X17837857Y-13688714D01*
X18195000Y-13688714D02*
X18195000Y-13388714D01*
X18323571Y-13688714D02*
X18323571Y-13531571D01*
X18309286Y-13503000D01*
X18280714Y-13488714D01*
X18237857Y-13488714D01*
X18209286Y-13503000D01*
X18195000Y-13517286D01*
X18509286Y-13688714D02*
X18480714Y-13674429D01*
X18466428Y-13660143D01*
X18452143Y-13631571D01*
X18452143Y-13545857D01*
X18466428Y-13517286D01*
X18480714Y-13503000D01*
X18509286Y-13488714D01*
X18552143Y-13488714D01*
X18580714Y-13503000D01*
X18595000Y-13517286D01*
X18609286Y-13545857D01*
X18609286Y-13631571D01*
X18595000Y-13660143D01*
X18580714Y-13674429D01*
X18552143Y-13688714D01*
X18509286Y-13688714D01*
X18780714Y-13688714D02*
X18752143Y-13674429D01*
X18737857Y-13645857D01*
X18737857Y-13388714D01*
X19009286Y-13674429D02*
X18980714Y-13688714D01*
X18923571Y-13688714D01*
X18895000Y-13674429D01*
X18880714Y-13645857D01*
X18880714Y-13531571D01*
X18895000Y-13503000D01*
X18923571Y-13488714D01*
X18980714Y-13488714D01*
X19009286Y-13503000D01*
X19023571Y-13531571D01*
X19023571Y-13560143D01*
X18880714Y-13588714D01*
X19137857Y-13674429D02*
X19166429Y-13688714D01*
X19223571Y-13688714D01*
X19252143Y-13674429D01*
X19266429Y-13645857D01*
X19266429Y-13631571D01*
X19252143Y-13603000D01*
X19223571Y-13588714D01*
X19180714Y-13588714D01*
X19152143Y-13574429D01*
X19137857Y-13545857D01*
X19137857Y-13531571D01*
X19152143Y-13503000D01*
X19180714Y-13488714D01*
X19223571Y-13488714D01*
X19252143Y-13503000D01*
X19366428Y-13803000D02*
X19380714Y-13788714D01*
X19409286Y-13745857D01*
X19423571Y-13717286D01*
X19437857Y-13674429D01*
X19452143Y-13603000D01*
X19452143Y-13545857D01*
X19437857Y-13474429D01*
X19423571Y-13431571D01*
X19409286Y-13403000D01*
X19380714Y-13360143D01*
X19366428Y-13345857D01*
M02*
