G04 #@! TF.FileFunction,Copper,L2,Bot,Signal*
%FSLAX46Y46*%
G04 Gerber Fmt 4.6, Leading zero omitted, Abs format (unit mm)*
G04 Created by KiCad (PCBNEW LL-2015-09-25-git:d09c0a2-llkicadgr) date Fri 25 Sep 2015 11:15:43 PM EEST*
%MOMM*%
G01*
G04 APERTURE LIST*
%ADD10C,0.150000*%
%ADD11C,1.524000*%
%ADD12C,2.700020*%
%ADD13R,2.032000X1.727200*%
%ADD14O,2.032000X1.727200*%
%ADD15C,0.700000*%
%ADD16C,0.250000*%
G04 APERTURE END LIST*
D10*
D11*
X139000000Y-103710000D03*
X139000000Y-106250000D03*
X137001020Y-106250000D03*
X137001020Y-103710000D03*
D12*
X134301000Y-98980520D03*
X134301000Y-110979480D03*
D13*
X157000000Y-101250000D03*
D14*
X157000000Y-103790000D03*
X157000000Y-106330000D03*
X157000000Y-108870000D03*
D15*
X144500000Y-111500000D03*
X151500000Y-102750000D03*
X146500000Y-110000000D03*
X141500000Y-106750000D03*
X141500000Y-105500000D03*
X147250000Y-105750000D03*
X148750000Y-105750000D03*
X148750000Y-104250000D03*
X147250000Y-104250000D03*
D16*
G36*
X159875000Y-97301776D02*
X159875000Y-112698224D01*
X159698224Y-112875000D01*
X130301776Y-112875000D01*
X130125000Y-112698224D01*
X130125000Y-111311198D01*
X132625700Y-111311198D01*
X132880168Y-111927057D01*
X133350944Y-112398656D01*
X133966358Y-112654198D01*
X134632718Y-112654780D01*
X135248577Y-112400312D01*
X135720176Y-111929536D01*
X135975718Y-111314122D01*
X135976300Y-110647762D01*
X135721832Y-110031903D01*
X135251056Y-109560304D01*
X134635642Y-109304762D01*
X133969282Y-109304180D01*
X133353423Y-109558648D01*
X132881824Y-110029424D01*
X132626282Y-110644838D01*
X132625700Y-111311198D01*
X130125000Y-111311198D01*
X130125000Y-109186231D01*
X155650050Y-109186231D01*
X155860541Y-109621008D01*
X156223075Y-109941572D01*
X156680687Y-110098999D01*
X156875000Y-110016229D01*
X156875000Y-108995000D01*
X157125000Y-108995000D01*
X157125000Y-110016229D01*
X157319313Y-110098999D01*
X157776925Y-109941572D01*
X158139459Y-109621008D01*
X158349950Y-109186231D01*
X158290406Y-108995000D01*
X157125000Y-108995000D01*
X156875000Y-108995000D01*
X155709594Y-108995000D01*
X155650050Y-109186231D01*
X130125000Y-109186231D01*
X130125000Y-108553769D01*
X155650050Y-108553769D01*
X155709594Y-108745000D01*
X156875000Y-108745000D01*
X156875000Y-107723771D01*
X157125000Y-107723771D01*
X157125000Y-108745000D01*
X158290406Y-108745000D01*
X158349950Y-108553769D01*
X158139459Y-108118992D01*
X157776925Y-107798428D01*
X157319313Y-107641001D01*
X157125000Y-107723771D01*
X156875000Y-107723771D01*
X156680687Y-107641001D01*
X156223075Y-107798428D01*
X155860541Y-108118992D01*
X155650050Y-108553769D01*
X130125000Y-108553769D01*
X130125000Y-107086626D01*
X136341171Y-107086626D01*
X136424715Y-107255878D01*
X136853517Y-107399852D01*
X137304774Y-107368772D01*
X137577325Y-107255878D01*
X137660869Y-107086626D01*
X137001020Y-106426777D01*
X136341171Y-107086626D01*
X130125000Y-107086626D01*
X130125000Y-106102497D01*
X135851168Y-106102497D01*
X135882248Y-106553754D01*
X135995142Y-106826305D01*
X136164394Y-106909849D01*
X136824243Y-106250000D01*
X137177797Y-106250000D01*
X137837646Y-106909849D01*
X138006898Y-106826305D01*
X138031595Y-106752748D01*
X138077949Y-106864932D01*
X138383460Y-107170977D01*
X138782834Y-107336811D01*
X139215269Y-107337189D01*
X139614932Y-107172051D01*
X139920977Y-106866540D01*
X140086811Y-106467166D01*
X140086930Y-106330000D01*
X155632728Y-106330000D01*
X155723205Y-106784858D01*
X155980861Y-107170467D01*
X156366470Y-107428123D01*
X156821328Y-107518600D01*
X157178672Y-107518600D01*
X157633530Y-107428123D01*
X158019139Y-107170467D01*
X158276795Y-106784858D01*
X158367272Y-106330000D01*
X158276795Y-105875142D01*
X158019139Y-105489533D01*
X157633530Y-105231877D01*
X157178672Y-105141400D01*
X156821328Y-105141400D01*
X156366470Y-105231877D01*
X155980861Y-105489533D01*
X155723205Y-105875142D01*
X155632728Y-106330000D01*
X140086930Y-106330000D01*
X140087189Y-106034731D01*
X139922051Y-105635068D01*
X139616540Y-105329023D01*
X139217166Y-105163189D01*
X138784731Y-105162811D01*
X138385068Y-105327949D01*
X138079023Y-105633460D01*
X138034573Y-105740508D01*
X138006898Y-105673695D01*
X137837646Y-105590151D01*
X137177797Y-106250000D01*
X136824243Y-106250000D01*
X136164394Y-105590151D01*
X135995142Y-105673695D01*
X135851168Y-106102497D01*
X130125000Y-106102497D01*
X130125000Y-105413374D01*
X136341171Y-105413374D01*
X137001020Y-106073223D01*
X137660869Y-105413374D01*
X137577325Y-105244122D01*
X137148523Y-105100148D01*
X136697266Y-105131228D01*
X136424715Y-105244122D01*
X136341171Y-105413374D01*
X130125000Y-105413374D01*
X130125000Y-103925269D01*
X135913831Y-103925269D01*
X136078969Y-104324932D01*
X136384480Y-104630977D01*
X136783854Y-104796811D01*
X137216289Y-104797189D01*
X137615952Y-104632051D01*
X137921997Y-104326540D01*
X138000498Y-104137487D01*
X138077949Y-104324932D01*
X138383460Y-104630977D01*
X138782834Y-104796811D01*
X139215269Y-104797189D01*
X139614932Y-104632051D01*
X139920977Y-104326540D01*
X140086811Y-103927166D01*
X140086930Y-103790000D01*
X155632728Y-103790000D01*
X155723205Y-104244858D01*
X155980861Y-104630467D01*
X156366470Y-104888123D01*
X156821328Y-104978600D01*
X157178672Y-104978600D01*
X157633530Y-104888123D01*
X158019139Y-104630467D01*
X158276795Y-104244858D01*
X158367272Y-103790000D01*
X158276795Y-103335142D01*
X158019139Y-102949533D01*
X157633530Y-102691877D01*
X157178672Y-102601400D01*
X156821328Y-102601400D01*
X156366470Y-102691877D01*
X155980861Y-102949533D01*
X155723205Y-103335142D01*
X155632728Y-103790000D01*
X140086930Y-103790000D01*
X140087189Y-103494731D01*
X139922051Y-103095068D01*
X139616540Y-102789023D01*
X139217166Y-102623189D01*
X138784731Y-102622811D01*
X138385068Y-102787949D01*
X138079023Y-103093460D01*
X138000522Y-103282513D01*
X137923071Y-103095068D01*
X137617560Y-102789023D01*
X137218186Y-102623189D01*
X136785751Y-102622811D01*
X136386088Y-102787949D01*
X136080043Y-103093460D01*
X135914209Y-103492834D01*
X135913831Y-103925269D01*
X130125000Y-103925269D01*
X130125000Y-99312238D01*
X132625700Y-99312238D01*
X132880168Y-99928097D01*
X133350944Y-100399696D01*
X133966358Y-100655238D01*
X134632718Y-100655820D01*
X135248577Y-100401352D01*
X135263555Y-100386400D01*
X155652633Y-100386400D01*
X155652633Y-102113600D01*
X155675295Y-102234038D01*
X155746474Y-102344653D01*
X155855080Y-102418860D01*
X155984000Y-102444967D01*
X158016000Y-102444967D01*
X158136438Y-102422305D01*
X158247053Y-102351126D01*
X158321260Y-102242520D01*
X158347367Y-102113600D01*
X158347367Y-100386400D01*
X158324705Y-100265962D01*
X158253526Y-100155347D01*
X158144920Y-100081140D01*
X158016000Y-100055033D01*
X155984000Y-100055033D01*
X155863562Y-100077695D01*
X155752947Y-100148874D01*
X155678740Y-100257480D01*
X155652633Y-100386400D01*
X135263555Y-100386400D01*
X135720176Y-99930576D01*
X135975718Y-99315162D01*
X135976300Y-98648802D01*
X135721832Y-98032943D01*
X135251056Y-97561344D01*
X134635642Y-97305802D01*
X133969282Y-97305220D01*
X133353423Y-97559688D01*
X132881824Y-98030464D01*
X132626282Y-98645878D01*
X132625700Y-99312238D01*
X130125000Y-99312238D01*
X130125000Y-97301776D01*
X130301776Y-97125000D01*
X159698224Y-97125000D01*
X159875000Y-97301776D01*
X159875000Y-97301776D01*
G37*
X159875000Y-97301776D02*
X159875000Y-112698224D01*
X159698224Y-112875000D01*
X130301776Y-112875000D01*
X130125000Y-112698224D01*
X130125000Y-111311198D01*
X132625700Y-111311198D01*
X132880168Y-111927057D01*
X133350944Y-112398656D01*
X133966358Y-112654198D01*
X134632718Y-112654780D01*
X135248577Y-112400312D01*
X135720176Y-111929536D01*
X135975718Y-111314122D01*
X135976300Y-110647762D01*
X135721832Y-110031903D01*
X135251056Y-109560304D01*
X134635642Y-109304762D01*
X133969282Y-109304180D01*
X133353423Y-109558648D01*
X132881824Y-110029424D01*
X132626282Y-110644838D01*
X132625700Y-111311198D01*
X130125000Y-111311198D01*
X130125000Y-109186231D01*
X155650050Y-109186231D01*
X155860541Y-109621008D01*
X156223075Y-109941572D01*
X156680687Y-110098999D01*
X156875000Y-110016229D01*
X156875000Y-108995000D01*
X157125000Y-108995000D01*
X157125000Y-110016229D01*
X157319313Y-110098999D01*
X157776925Y-109941572D01*
X158139459Y-109621008D01*
X158349950Y-109186231D01*
X158290406Y-108995000D01*
X157125000Y-108995000D01*
X156875000Y-108995000D01*
X155709594Y-108995000D01*
X155650050Y-109186231D01*
X130125000Y-109186231D01*
X130125000Y-108553769D01*
X155650050Y-108553769D01*
X155709594Y-108745000D01*
X156875000Y-108745000D01*
X156875000Y-107723771D01*
X157125000Y-107723771D01*
X157125000Y-108745000D01*
X158290406Y-108745000D01*
X158349950Y-108553769D01*
X158139459Y-108118992D01*
X157776925Y-107798428D01*
X157319313Y-107641001D01*
X157125000Y-107723771D01*
X156875000Y-107723771D01*
X156680687Y-107641001D01*
X156223075Y-107798428D01*
X155860541Y-108118992D01*
X155650050Y-108553769D01*
X130125000Y-108553769D01*
X130125000Y-107086626D01*
X136341171Y-107086626D01*
X136424715Y-107255878D01*
X136853517Y-107399852D01*
X137304774Y-107368772D01*
X137577325Y-107255878D01*
X137660869Y-107086626D01*
X137001020Y-106426777D01*
X136341171Y-107086626D01*
X130125000Y-107086626D01*
X130125000Y-106102497D01*
X135851168Y-106102497D01*
X135882248Y-106553754D01*
X135995142Y-106826305D01*
X136164394Y-106909849D01*
X136824243Y-106250000D01*
X137177797Y-106250000D01*
X137837646Y-106909849D01*
X138006898Y-106826305D01*
X138031595Y-106752748D01*
X138077949Y-106864932D01*
X138383460Y-107170977D01*
X138782834Y-107336811D01*
X139215269Y-107337189D01*
X139614932Y-107172051D01*
X139920977Y-106866540D01*
X140086811Y-106467166D01*
X140086930Y-106330000D01*
X155632728Y-106330000D01*
X155723205Y-106784858D01*
X155980861Y-107170467D01*
X156366470Y-107428123D01*
X156821328Y-107518600D01*
X157178672Y-107518600D01*
X157633530Y-107428123D01*
X158019139Y-107170467D01*
X158276795Y-106784858D01*
X158367272Y-106330000D01*
X158276795Y-105875142D01*
X158019139Y-105489533D01*
X157633530Y-105231877D01*
X157178672Y-105141400D01*
X156821328Y-105141400D01*
X156366470Y-105231877D01*
X155980861Y-105489533D01*
X155723205Y-105875142D01*
X155632728Y-106330000D01*
X140086930Y-106330000D01*
X140087189Y-106034731D01*
X139922051Y-105635068D01*
X139616540Y-105329023D01*
X139217166Y-105163189D01*
X138784731Y-105162811D01*
X138385068Y-105327949D01*
X138079023Y-105633460D01*
X138034573Y-105740508D01*
X138006898Y-105673695D01*
X137837646Y-105590151D01*
X137177797Y-106250000D01*
X136824243Y-106250000D01*
X136164394Y-105590151D01*
X135995142Y-105673695D01*
X135851168Y-106102497D01*
X130125000Y-106102497D01*
X130125000Y-105413374D01*
X136341171Y-105413374D01*
X137001020Y-106073223D01*
X137660869Y-105413374D01*
X137577325Y-105244122D01*
X137148523Y-105100148D01*
X136697266Y-105131228D01*
X136424715Y-105244122D01*
X136341171Y-105413374D01*
X130125000Y-105413374D01*
X130125000Y-103925269D01*
X135913831Y-103925269D01*
X136078969Y-104324932D01*
X136384480Y-104630977D01*
X136783854Y-104796811D01*
X137216289Y-104797189D01*
X137615952Y-104632051D01*
X137921997Y-104326540D01*
X138000498Y-104137487D01*
X138077949Y-104324932D01*
X138383460Y-104630977D01*
X138782834Y-104796811D01*
X139215269Y-104797189D01*
X139614932Y-104632051D01*
X139920977Y-104326540D01*
X140086811Y-103927166D01*
X140086930Y-103790000D01*
X155632728Y-103790000D01*
X155723205Y-104244858D01*
X155980861Y-104630467D01*
X156366470Y-104888123D01*
X156821328Y-104978600D01*
X157178672Y-104978600D01*
X157633530Y-104888123D01*
X158019139Y-104630467D01*
X158276795Y-104244858D01*
X158367272Y-103790000D01*
X158276795Y-103335142D01*
X158019139Y-102949533D01*
X157633530Y-102691877D01*
X157178672Y-102601400D01*
X156821328Y-102601400D01*
X156366470Y-102691877D01*
X155980861Y-102949533D01*
X155723205Y-103335142D01*
X155632728Y-103790000D01*
X140086930Y-103790000D01*
X140087189Y-103494731D01*
X139922051Y-103095068D01*
X139616540Y-102789023D01*
X139217166Y-102623189D01*
X138784731Y-102622811D01*
X138385068Y-102787949D01*
X138079023Y-103093460D01*
X138000522Y-103282513D01*
X137923071Y-103095068D01*
X137617560Y-102789023D01*
X137218186Y-102623189D01*
X136785751Y-102622811D01*
X136386088Y-102787949D01*
X136080043Y-103093460D01*
X135914209Y-103492834D01*
X135913831Y-103925269D01*
X130125000Y-103925269D01*
X130125000Y-99312238D01*
X132625700Y-99312238D01*
X132880168Y-99928097D01*
X133350944Y-100399696D01*
X133966358Y-100655238D01*
X134632718Y-100655820D01*
X135248577Y-100401352D01*
X135263555Y-100386400D01*
X155652633Y-100386400D01*
X155652633Y-102113600D01*
X155675295Y-102234038D01*
X155746474Y-102344653D01*
X155855080Y-102418860D01*
X155984000Y-102444967D01*
X158016000Y-102444967D01*
X158136438Y-102422305D01*
X158247053Y-102351126D01*
X158321260Y-102242520D01*
X158347367Y-102113600D01*
X158347367Y-100386400D01*
X158324705Y-100265962D01*
X158253526Y-100155347D01*
X158144920Y-100081140D01*
X158016000Y-100055033D01*
X155984000Y-100055033D01*
X155863562Y-100077695D01*
X155752947Y-100148874D01*
X155678740Y-100257480D01*
X155652633Y-100386400D01*
X135263555Y-100386400D01*
X135720176Y-99930576D01*
X135975718Y-99315162D01*
X135976300Y-98648802D01*
X135721832Y-98032943D01*
X135251056Y-97561344D01*
X134635642Y-97305802D01*
X133969282Y-97305220D01*
X133353423Y-97559688D01*
X132881824Y-98030464D01*
X132626282Y-98645878D01*
X132625700Y-99312238D01*
X130125000Y-99312238D01*
X130125000Y-97301776D01*
X130301776Y-97125000D01*
X159698224Y-97125000D01*
X159875000Y-97301776D01*
M02*
