G04 #@! TF.FileFunction,Legend,Top*
%FSLAX46Y46*%
G04 Gerber Fmt 4.6, Leading zero omitted, Abs format (unit mm)*
G04 Created by KiCad (PCBNEW LL-2015-09-25-git:d09c0a2-llkicadgr) date Fri 25 Sep 2015 11:15:43 PM EEST*
%MOMM*%
G01*
G04 APERTURE LIST*
%ADD10C,0.150000*%
%ADD11C,0.200000*%
%ADD12C,0.002540*%
G04 APERTURE END LIST*
D10*
D11*
X143380952Y-97785714D02*
X143380952Y-98452381D01*
X142952380Y-97785714D02*
X142952380Y-98309524D01*
X142999999Y-98404762D01*
X143095237Y-98452381D01*
X143238095Y-98452381D01*
X143333333Y-98404762D01*
X143380952Y-98357143D01*
X143809523Y-98404762D02*
X143904761Y-98452381D01*
X144095237Y-98452381D01*
X144190476Y-98404762D01*
X144238095Y-98309524D01*
X144238095Y-98261905D01*
X144190476Y-98166667D01*
X144095237Y-98119048D01*
X143952380Y-98119048D01*
X143857142Y-98071429D01*
X143809523Y-97976190D01*
X143809523Y-97928571D01*
X143857142Y-97833333D01*
X143952380Y-97785714D01*
X144095237Y-97785714D01*
X144190476Y-97833333D01*
X144666666Y-98452381D02*
X144666666Y-97452381D01*
X144666666Y-97833333D02*
X144761904Y-97785714D01*
X144952381Y-97785714D01*
X145047619Y-97833333D01*
X145095238Y-97880952D01*
X145142857Y-97976190D01*
X145142857Y-98261905D01*
X145095238Y-98357143D01*
X145047619Y-98404762D01*
X144952381Y-98452381D01*
X144761904Y-98452381D01*
X144666666Y-98404762D01*
X145523809Y-97547619D02*
X145571428Y-97500000D01*
X145666666Y-97452381D01*
X145904762Y-97452381D01*
X146000000Y-97500000D01*
X146047619Y-97547619D01*
X146095238Y-97642857D01*
X146095238Y-97738095D01*
X146047619Y-97880952D01*
X145476190Y-98452381D01*
X146095238Y-98452381D01*
X146952381Y-97785714D02*
X146952381Y-98452381D01*
X146523809Y-97785714D02*
X146523809Y-98309524D01*
X146571428Y-98404762D01*
X146666666Y-98452381D01*
X146809524Y-98452381D01*
X146904762Y-98404762D01*
X146952381Y-98357143D01*
X147857143Y-98452381D02*
X147857143Y-97928571D01*
X147809524Y-97833333D01*
X147714286Y-97785714D01*
X147523809Y-97785714D01*
X147428571Y-97833333D01*
X147857143Y-98404762D02*
X147761905Y-98452381D01*
X147523809Y-98452381D01*
X147428571Y-98404762D01*
X147380952Y-98309524D01*
X147380952Y-98214286D01*
X147428571Y-98119048D01*
X147523809Y-98071429D01*
X147761905Y-98071429D01*
X147857143Y-98023810D01*
X148333333Y-98452381D02*
X148333333Y-97785714D01*
X148333333Y-97976190D02*
X148380952Y-97880952D01*
X148428571Y-97833333D01*
X148523809Y-97785714D01*
X148619048Y-97785714D01*
X148809524Y-97785714D02*
X149190476Y-97785714D01*
X148952381Y-97452381D02*
X148952381Y-98309524D01*
X149000000Y-98404762D01*
X149095238Y-98452381D01*
X149190476Y-98452381D01*
D12*
G36*
X159499360Y-98873760D02*
X159453640Y-98873760D01*
X159453640Y-98347980D01*
X159453640Y-97776480D01*
X159453640Y-97199900D01*
X159438400Y-97184660D01*
X159425700Y-97171960D01*
X157000000Y-97171960D01*
X154574300Y-97171960D01*
X154561600Y-97184660D01*
X154546360Y-97199900D01*
X154546360Y-97776480D01*
X154546360Y-98347980D01*
X154635260Y-98347980D01*
X154724160Y-98347980D01*
X154757180Y-98398780D01*
X154805440Y-98464820D01*
X154861320Y-98525780D01*
X154922280Y-98579120D01*
X154990860Y-98624840D01*
X155064520Y-98665480D01*
X155140720Y-98695960D01*
X155222000Y-98718820D01*
X155288040Y-98728980D01*
X155321060Y-98731520D01*
X155361700Y-98731520D01*
X155404880Y-98731520D01*
X155448060Y-98726440D01*
X155486160Y-98723900D01*
X155509020Y-98718820D01*
X155595380Y-98695960D01*
X155674120Y-98668020D01*
X155747780Y-98627380D01*
X155816360Y-98581660D01*
X155882400Y-98523240D01*
X155907800Y-98497840D01*
X155930660Y-98472440D01*
X155953520Y-98444500D01*
X155973840Y-98419100D01*
X155986540Y-98398780D01*
X156019560Y-98350520D01*
X157734060Y-98347980D01*
X159453640Y-98347980D01*
X159453640Y-98873760D01*
X159448560Y-98873760D01*
X159448560Y-98833120D01*
X159448560Y-98614680D01*
X159448560Y-98393700D01*
X157749300Y-98393700D01*
X156052580Y-98393700D01*
X156019560Y-98439420D01*
X155981460Y-98492760D01*
X155945900Y-98541020D01*
X155905260Y-98579120D01*
X155864620Y-98612140D01*
X155818900Y-98645160D01*
X155785880Y-98665480D01*
X155730000Y-98693420D01*
X155681740Y-98716280D01*
X155636020Y-98734060D01*
X155590300Y-98749300D01*
X155542040Y-98762000D01*
X155539500Y-98762000D01*
X155465840Y-98774700D01*
X155399800Y-98779780D01*
X155336300Y-98779780D01*
X155270260Y-98774700D01*
X155201680Y-98762000D01*
X155125480Y-98739140D01*
X155049280Y-98706120D01*
X154970540Y-98662940D01*
X154891800Y-98612140D01*
X154866400Y-98591820D01*
X154846080Y-98576580D01*
X154823220Y-98553720D01*
X154797820Y-98528320D01*
X154769880Y-98500380D01*
X154747020Y-98472440D01*
X154724160Y-98447040D01*
X154708920Y-98424180D01*
X154701300Y-98408940D01*
X154691140Y-98393700D01*
X154617480Y-98393700D01*
X154541280Y-98393700D01*
X154541280Y-98614680D01*
X154541280Y-98833120D01*
X156997460Y-98833120D01*
X159448560Y-98833120D01*
X159448560Y-98873760D01*
X157002540Y-98873760D01*
X154508260Y-98873760D01*
X154503180Y-98802640D01*
X154503180Y-98787400D01*
X154503180Y-98764540D01*
X154503180Y-98734060D01*
X154503180Y-98693420D01*
X154503180Y-98647700D01*
X154500640Y-98596900D01*
X154500640Y-98538480D01*
X154500640Y-98477520D01*
X154500640Y-98411480D01*
X154500640Y-98340360D01*
X154500640Y-98266700D01*
X154500640Y-98190500D01*
X154500640Y-98111760D01*
X154500640Y-98033020D01*
X154503180Y-97956820D01*
X154503180Y-97878080D01*
X154503180Y-97799340D01*
X154503180Y-97723140D01*
X154503180Y-97646940D01*
X154503180Y-97573280D01*
X154503180Y-97504700D01*
X154503180Y-97441200D01*
X154503180Y-97380240D01*
X154505720Y-97324360D01*
X154505720Y-97273560D01*
X154505720Y-97230380D01*
X154505720Y-97194820D01*
X154505720Y-97166880D01*
X154505720Y-97146560D01*
X154508260Y-97133860D01*
X154508260Y-97133860D01*
X154513340Y-97131320D01*
X154528580Y-97131320D01*
X154551440Y-97131320D01*
X154584460Y-97131320D01*
X154625100Y-97131320D01*
X154675900Y-97131320D01*
X154734320Y-97131320D01*
X154797820Y-97131320D01*
X154871480Y-97131320D01*
X154950220Y-97131320D01*
X155034040Y-97131320D01*
X155125480Y-97131320D01*
X155222000Y-97128780D01*
X155323600Y-97128780D01*
X155430280Y-97128780D01*
X155542040Y-97128780D01*
X155656340Y-97128780D01*
X155775720Y-97128780D01*
X155897640Y-97128780D01*
X156024640Y-97128780D01*
X156151640Y-97128780D01*
X156281180Y-97128780D01*
X156415800Y-97128780D01*
X156547880Y-97128780D01*
X156685040Y-97128780D01*
X156819660Y-97128780D01*
X156956820Y-97128780D01*
X157091440Y-97128780D01*
X157226060Y-97128780D01*
X157363220Y-97128780D01*
X157497840Y-97128780D01*
X157629920Y-97128780D01*
X157762000Y-97128780D01*
X157891540Y-97128780D01*
X158018540Y-97128780D01*
X158143000Y-97128780D01*
X158262380Y-97128780D01*
X158381760Y-97128780D01*
X158493520Y-97128780D01*
X158602740Y-97128780D01*
X158706880Y-97128780D01*
X158805940Y-97128780D01*
X158902460Y-97128780D01*
X158988820Y-97128780D01*
X159072640Y-97128780D01*
X159146300Y-97128780D01*
X159214880Y-97128780D01*
X159278380Y-97128780D01*
X159331720Y-97128780D01*
X159377440Y-97128780D01*
X159415540Y-97128780D01*
X159443480Y-97128780D01*
X159463800Y-97128780D01*
X159473960Y-97128780D01*
X159476500Y-97128780D01*
X159499360Y-97131320D01*
X159499360Y-98002540D01*
X159499360Y-98873760D01*
X159499360Y-98873760D01*
X159499360Y-98873760D01*
G37*
X159499360Y-98873760D02*
X159453640Y-98873760D01*
X159453640Y-98347980D01*
X159453640Y-97776480D01*
X159453640Y-97199900D01*
X159438400Y-97184660D01*
X159425700Y-97171960D01*
X157000000Y-97171960D01*
X154574300Y-97171960D01*
X154561600Y-97184660D01*
X154546360Y-97199900D01*
X154546360Y-97776480D01*
X154546360Y-98347980D01*
X154635260Y-98347980D01*
X154724160Y-98347980D01*
X154757180Y-98398780D01*
X154805440Y-98464820D01*
X154861320Y-98525780D01*
X154922280Y-98579120D01*
X154990860Y-98624840D01*
X155064520Y-98665480D01*
X155140720Y-98695960D01*
X155222000Y-98718820D01*
X155288040Y-98728980D01*
X155321060Y-98731520D01*
X155361700Y-98731520D01*
X155404880Y-98731520D01*
X155448060Y-98726440D01*
X155486160Y-98723900D01*
X155509020Y-98718820D01*
X155595380Y-98695960D01*
X155674120Y-98668020D01*
X155747780Y-98627380D01*
X155816360Y-98581660D01*
X155882400Y-98523240D01*
X155907800Y-98497840D01*
X155930660Y-98472440D01*
X155953520Y-98444500D01*
X155973840Y-98419100D01*
X155986540Y-98398780D01*
X156019560Y-98350520D01*
X157734060Y-98347980D01*
X159453640Y-98347980D01*
X159453640Y-98873760D01*
X159448560Y-98873760D01*
X159448560Y-98833120D01*
X159448560Y-98614680D01*
X159448560Y-98393700D01*
X157749300Y-98393700D01*
X156052580Y-98393700D01*
X156019560Y-98439420D01*
X155981460Y-98492760D01*
X155945900Y-98541020D01*
X155905260Y-98579120D01*
X155864620Y-98612140D01*
X155818900Y-98645160D01*
X155785880Y-98665480D01*
X155730000Y-98693420D01*
X155681740Y-98716280D01*
X155636020Y-98734060D01*
X155590300Y-98749300D01*
X155542040Y-98762000D01*
X155539500Y-98762000D01*
X155465840Y-98774700D01*
X155399800Y-98779780D01*
X155336300Y-98779780D01*
X155270260Y-98774700D01*
X155201680Y-98762000D01*
X155125480Y-98739140D01*
X155049280Y-98706120D01*
X154970540Y-98662940D01*
X154891800Y-98612140D01*
X154866400Y-98591820D01*
X154846080Y-98576580D01*
X154823220Y-98553720D01*
X154797820Y-98528320D01*
X154769880Y-98500380D01*
X154747020Y-98472440D01*
X154724160Y-98447040D01*
X154708920Y-98424180D01*
X154701300Y-98408940D01*
X154691140Y-98393700D01*
X154617480Y-98393700D01*
X154541280Y-98393700D01*
X154541280Y-98614680D01*
X154541280Y-98833120D01*
X156997460Y-98833120D01*
X159448560Y-98833120D01*
X159448560Y-98873760D01*
X157002540Y-98873760D01*
X154508260Y-98873760D01*
X154503180Y-98802640D01*
X154503180Y-98787400D01*
X154503180Y-98764540D01*
X154503180Y-98734060D01*
X154503180Y-98693420D01*
X154503180Y-98647700D01*
X154500640Y-98596900D01*
X154500640Y-98538480D01*
X154500640Y-98477520D01*
X154500640Y-98411480D01*
X154500640Y-98340360D01*
X154500640Y-98266700D01*
X154500640Y-98190500D01*
X154500640Y-98111760D01*
X154500640Y-98033020D01*
X154503180Y-97956820D01*
X154503180Y-97878080D01*
X154503180Y-97799340D01*
X154503180Y-97723140D01*
X154503180Y-97646940D01*
X154503180Y-97573280D01*
X154503180Y-97504700D01*
X154503180Y-97441200D01*
X154503180Y-97380240D01*
X154505720Y-97324360D01*
X154505720Y-97273560D01*
X154505720Y-97230380D01*
X154505720Y-97194820D01*
X154505720Y-97166880D01*
X154505720Y-97146560D01*
X154508260Y-97133860D01*
X154508260Y-97133860D01*
X154513340Y-97131320D01*
X154528580Y-97131320D01*
X154551440Y-97131320D01*
X154584460Y-97131320D01*
X154625100Y-97131320D01*
X154675900Y-97131320D01*
X154734320Y-97131320D01*
X154797820Y-97131320D01*
X154871480Y-97131320D01*
X154950220Y-97131320D01*
X155034040Y-97131320D01*
X155125480Y-97131320D01*
X155222000Y-97128780D01*
X155323600Y-97128780D01*
X155430280Y-97128780D01*
X155542040Y-97128780D01*
X155656340Y-97128780D01*
X155775720Y-97128780D01*
X155897640Y-97128780D01*
X156024640Y-97128780D01*
X156151640Y-97128780D01*
X156281180Y-97128780D01*
X156415800Y-97128780D01*
X156547880Y-97128780D01*
X156685040Y-97128780D01*
X156819660Y-97128780D01*
X156956820Y-97128780D01*
X157091440Y-97128780D01*
X157226060Y-97128780D01*
X157363220Y-97128780D01*
X157497840Y-97128780D01*
X157629920Y-97128780D01*
X157762000Y-97128780D01*
X157891540Y-97128780D01*
X158018540Y-97128780D01*
X158143000Y-97128780D01*
X158262380Y-97128780D01*
X158381760Y-97128780D01*
X158493520Y-97128780D01*
X158602740Y-97128780D01*
X158706880Y-97128780D01*
X158805940Y-97128780D01*
X158902460Y-97128780D01*
X158988820Y-97128780D01*
X159072640Y-97128780D01*
X159146300Y-97128780D01*
X159214880Y-97128780D01*
X159278380Y-97128780D01*
X159331720Y-97128780D01*
X159377440Y-97128780D01*
X159415540Y-97128780D01*
X159443480Y-97128780D01*
X159463800Y-97128780D01*
X159473960Y-97128780D01*
X159476500Y-97128780D01*
X159499360Y-97131320D01*
X159499360Y-98002540D01*
X159499360Y-98873760D01*
X159499360Y-98873760D01*
G36*
X157993140Y-98657860D02*
X157990600Y-98673100D01*
X157977900Y-98708660D01*
X157960120Y-98734060D01*
X157934720Y-98754380D01*
X157904240Y-98767080D01*
X157868680Y-98769620D01*
X157845820Y-98767080D01*
X157820420Y-98762000D01*
X157800100Y-98751840D01*
X157779780Y-98736600D01*
X157769620Y-98726440D01*
X157751840Y-98698500D01*
X157739140Y-98665480D01*
X157734060Y-98632460D01*
X157736600Y-98596900D01*
X157746760Y-98561340D01*
X157764540Y-98530860D01*
X157774700Y-98518160D01*
X157800100Y-98497840D01*
X157830580Y-98485140D01*
X157863600Y-98480060D01*
X157894080Y-98482600D01*
X157924560Y-98492760D01*
X157949960Y-98508000D01*
X157972820Y-98530860D01*
X157977900Y-98543560D01*
X157985520Y-98558800D01*
X157988060Y-98571500D01*
X157988060Y-98574040D01*
X157988060Y-98579120D01*
X157982980Y-98581660D01*
X157970280Y-98584200D01*
X157962660Y-98584200D01*
X157944880Y-98584200D01*
X157937260Y-98581660D01*
X157929640Y-98576580D01*
X157927100Y-98568960D01*
X157911860Y-98548640D01*
X157891540Y-98538480D01*
X157871220Y-98533400D01*
X157848360Y-98538480D01*
X157828040Y-98548640D01*
X157812800Y-98566420D01*
X157807720Y-98576580D01*
X157800100Y-98596900D01*
X157797560Y-98622300D01*
X157800100Y-98650240D01*
X157805180Y-98673100D01*
X157807720Y-98678180D01*
X157822960Y-98698500D01*
X157843280Y-98711200D01*
X157866140Y-98718820D01*
X157889000Y-98716280D01*
X157899160Y-98711200D01*
X157911860Y-98701040D01*
X157922020Y-98685800D01*
X157929640Y-98670560D01*
X157929640Y-98665480D01*
X157929640Y-98662940D01*
X157937260Y-98660400D01*
X157952500Y-98657860D01*
X157960120Y-98657860D01*
X157993140Y-98657860D01*
X157993140Y-98657860D01*
X157993140Y-98657860D01*
G37*
X157993140Y-98657860D02*
X157990600Y-98673100D01*
X157977900Y-98708660D01*
X157960120Y-98734060D01*
X157934720Y-98754380D01*
X157904240Y-98767080D01*
X157868680Y-98769620D01*
X157845820Y-98767080D01*
X157820420Y-98762000D01*
X157800100Y-98751840D01*
X157779780Y-98736600D01*
X157769620Y-98726440D01*
X157751840Y-98698500D01*
X157739140Y-98665480D01*
X157734060Y-98632460D01*
X157736600Y-98596900D01*
X157746760Y-98561340D01*
X157764540Y-98530860D01*
X157774700Y-98518160D01*
X157800100Y-98497840D01*
X157830580Y-98485140D01*
X157863600Y-98480060D01*
X157894080Y-98482600D01*
X157924560Y-98492760D01*
X157949960Y-98508000D01*
X157972820Y-98530860D01*
X157977900Y-98543560D01*
X157985520Y-98558800D01*
X157988060Y-98571500D01*
X157988060Y-98574040D01*
X157988060Y-98579120D01*
X157982980Y-98581660D01*
X157970280Y-98584200D01*
X157962660Y-98584200D01*
X157944880Y-98584200D01*
X157937260Y-98581660D01*
X157929640Y-98576580D01*
X157927100Y-98568960D01*
X157911860Y-98548640D01*
X157891540Y-98538480D01*
X157871220Y-98533400D01*
X157848360Y-98538480D01*
X157828040Y-98548640D01*
X157812800Y-98566420D01*
X157807720Y-98576580D01*
X157800100Y-98596900D01*
X157797560Y-98622300D01*
X157800100Y-98650240D01*
X157805180Y-98673100D01*
X157807720Y-98678180D01*
X157822960Y-98698500D01*
X157843280Y-98711200D01*
X157866140Y-98718820D01*
X157889000Y-98716280D01*
X157899160Y-98711200D01*
X157911860Y-98701040D01*
X157922020Y-98685800D01*
X157929640Y-98670560D01*
X157929640Y-98665480D01*
X157929640Y-98662940D01*
X157937260Y-98660400D01*
X157952500Y-98657860D01*
X157960120Y-98657860D01*
X157993140Y-98657860D01*
X157993140Y-98657860D01*
G36*
X158767840Y-98693420D02*
X158762760Y-98713740D01*
X158752600Y-98731520D01*
X158747520Y-98736600D01*
X158729740Y-98751840D01*
X158701800Y-98764540D01*
X158671320Y-98769620D01*
X158640840Y-98769620D01*
X158635760Y-98769620D01*
X158600200Y-98762000D01*
X158572260Y-98746760D01*
X158551940Y-98726440D01*
X158539240Y-98701040D01*
X158539240Y-98698500D01*
X158536700Y-98683260D01*
X158539240Y-98673100D01*
X158546860Y-98670560D01*
X158564640Y-98670560D01*
X158569720Y-98670560D01*
X158584960Y-98670560D01*
X158592580Y-98673100D01*
X158597660Y-98680720D01*
X158600200Y-98688340D01*
X158610360Y-98706120D01*
X158628140Y-98718820D01*
X158648460Y-98723900D01*
X158673860Y-98721360D01*
X158686560Y-98716280D01*
X158701800Y-98708660D01*
X158709420Y-98695960D01*
X158706880Y-98683260D01*
X158704340Y-98675640D01*
X158696720Y-98668020D01*
X158684020Y-98662940D01*
X158663700Y-98655320D01*
X158638300Y-98645160D01*
X158623060Y-98642620D01*
X158600200Y-98635000D01*
X158582420Y-98627380D01*
X158572260Y-98619760D01*
X158564640Y-98612140D01*
X158549400Y-98589280D01*
X158544320Y-98566420D01*
X158546860Y-98543560D01*
X158557020Y-98523240D01*
X158574800Y-98505460D01*
X158595120Y-98492760D01*
X158620520Y-98482600D01*
X158651000Y-98480060D01*
X158678940Y-98482600D01*
X158709420Y-98492760D01*
X158734820Y-98508000D01*
X158750060Y-98528320D01*
X158757680Y-98553720D01*
X158757680Y-98553720D01*
X158760220Y-98574040D01*
X158732280Y-98574040D01*
X158714500Y-98574040D01*
X158706880Y-98571500D01*
X158701800Y-98566420D01*
X158696720Y-98558800D01*
X158689100Y-98543560D01*
X158671320Y-98533400D01*
X158653540Y-98528320D01*
X158633220Y-98530860D01*
X158617980Y-98538480D01*
X158615440Y-98541020D01*
X158607820Y-98551180D01*
X158605280Y-98561340D01*
X158610360Y-98568960D01*
X158612900Y-98574040D01*
X158623060Y-98579120D01*
X158643380Y-98589280D01*
X158673860Y-98596900D01*
X158676400Y-98596900D01*
X158709420Y-98609600D01*
X158734820Y-98619760D01*
X158750060Y-98632460D01*
X158762760Y-98647700D01*
X158767840Y-98665480D01*
X158767840Y-98670560D01*
X158767840Y-98693420D01*
X158767840Y-98693420D01*
X158767840Y-98693420D01*
G37*
X158767840Y-98693420D02*
X158762760Y-98713740D01*
X158752600Y-98731520D01*
X158747520Y-98736600D01*
X158729740Y-98751840D01*
X158701800Y-98764540D01*
X158671320Y-98769620D01*
X158640840Y-98769620D01*
X158635760Y-98769620D01*
X158600200Y-98762000D01*
X158572260Y-98746760D01*
X158551940Y-98726440D01*
X158539240Y-98701040D01*
X158539240Y-98698500D01*
X158536700Y-98683260D01*
X158539240Y-98673100D01*
X158546860Y-98670560D01*
X158564640Y-98670560D01*
X158569720Y-98670560D01*
X158584960Y-98670560D01*
X158592580Y-98673100D01*
X158597660Y-98680720D01*
X158600200Y-98688340D01*
X158610360Y-98706120D01*
X158628140Y-98718820D01*
X158648460Y-98723900D01*
X158673860Y-98721360D01*
X158686560Y-98716280D01*
X158701800Y-98708660D01*
X158709420Y-98695960D01*
X158706880Y-98683260D01*
X158704340Y-98675640D01*
X158696720Y-98668020D01*
X158684020Y-98662940D01*
X158663700Y-98655320D01*
X158638300Y-98645160D01*
X158623060Y-98642620D01*
X158600200Y-98635000D01*
X158582420Y-98627380D01*
X158572260Y-98619760D01*
X158564640Y-98612140D01*
X158549400Y-98589280D01*
X158544320Y-98566420D01*
X158546860Y-98543560D01*
X158557020Y-98523240D01*
X158574800Y-98505460D01*
X158595120Y-98492760D01*
X158620520Y-98482600D01*
X158651000Y-98480060D01*
X158678940Y-98482600D01*
X158709420Y-98492760D01*
X158734820Y-98508000D01*
X158750060Y-98528320D01*
X158757680Y-98553720D01*
X158757680Y-98553720D01*
X158760220Y-98574040D01*
X158732280Y-98574040D01*
X158714500Y-98574040D01*
X158706880Y-98571500D01*
X158701800Y-98566420D01*
X158696720Y-98558800D01*
X158689100Y-98543560D01*
X158671320Y-98533400D01*
X158653540Y-98528320D01*
X158633220Y-98530860D01*
X158617980Y-98538480D01*
X158615440Y-98541020D01*
X158607820Y-98551180D01*
X158605280Y-98561340D01*
X158610360Y-98568960D01*
X158612900Y-98574040D01*
X158623060Y-98579120D01*
X158643380Y-98589280D01*
X158673860Y-98596900D01*
X158676400Y-98596900D01*
X158709420Y-98609600D01*
X158734820Y-98619760D01*
X158750060Y-98632460D01*
X158762760Y-98647700D01*
X158767840Y-98665480D01*
X158767840Y-98670560D01*
X158767840Y-98693420D01*
X158767840Y-98693420D01*
G36*
X156619000Y-98693420D02*
X156611380Y-98718820D01*
X156596140Y-98741680D01*
X156573280Y-98754380D01*
X156565660Y-98756920D01*
X156555500Y-98759460D01*
X156555500Y-98678180D01*
X156555500Y-98662940D01*
X156547880Y-98652780D01*
X156545340Y-98652780D01*
X156545340Y-98563880D01*
X156540260Y-98551180D01*
X156537720Y-98546100D01*
X156530100Y-98541020D01*
X156517400Y-98538480D01*
X156497080Y-98538480D01*
X156492000Y-98538480D01*
X156451360Y-98538480D01*
X156451360Y-98553720D01*
X156448820Y-98571500D01*
X156451360Y-98584200D01*
X156451360Y-98591820D01*
X156453900Y-98596900D01*
X156461520Y-98599440D01*
X156476760Y-98599440D01*
X156486920Y-98599440D01*
X156512320Y-98596900D01*
X156530100Y-98594360D01*
X156535180Y-98591820D01*
X156542800Y-98579120D01*
X156545340Y-98563880D01*
X156545340Y-98652780D01*
X156535180Y-98647700D01*
X156517400Y-98645160D01*
X156492000Y-98642620D01*
X156451360Y-98642620D01*
X156451360Y-98678180D01*
X156451360Y-98713740D01*
X156494540Y-98713740D01*
X156517400Y-98713740D01*
X156532640Y-98711200D01*
X156542800Y-98708660D01*
X156547880Y-98706120D01*
X156555500Y-98693420D01*
X156555500Y-98678180D01*
X156555500Y-98759460D01*
X156552960Y-98759460D01*
X156540260Y-98762000D01*
X156519940Y-98762000D01*
X156494540Y-98764540D01*
X156469140Y-98764540D01*
X156385320Y-98764540D01*
X156385320Y-98627380D01*
X156385320Y-98487680D01*
X156469140Y-98487680D01*
X156504700Y-98490220D01*
X156532640Y-98490220D01*
X156552960Y-98492760D01*
X156568200Y-98495300D01*
X156580900Y-98500380D01*
X156588520Y-98508000D01*
X156593600Y-98513080D01*
X156601220Y-98525780D01*
X156603760Y-98546100D01*
X156606300Y-98566420D01*
X156603760Y-98576580D01*
X156598680Y-98589280D01*
X156588520Y-98601980D01*
X156585980Y-98601980D01*
X156578360Y-98612140D01*
X156578360Y-98617220D01*
X156580900Y-98617220D01*
X156593600Y-98627380D01*
X156608840Y-98640080D01*
X156616460Y-98657860D01*
X156619000Y-98665480D01*
X156619000Y-98693420D01*
X156619000Y-98693420D01*
X156619000Y-98693420D01*
G37*
X156619000Y-98693420D02*
X156611380Y-98718820D01*
X156596140Y-98741680D01*
X156573280Y-98754380D01*
X156565660Y-98756920D01*
X156555500Y-98759460D01*
X156555500Y-98678180D01*
X156555500Y-98662940D01*
X156547880Y-98652780D01*
X156545340Y-98652780D01*
X156545340Y-98563880D01*
X156540260Y-98551180D01*
X156537720Y-98546100D01*
X156530100Y-98541020D01*
X156517400Y-98538480D01*
X156497080Y-98538480D01*
X156492000Y-98538480D01*
X156451360Y-98538480D01*
X156451360Y-98553720D01*
X156448820Y-98571500D01*
X156451360Y-98584200D01*
X156451360Y-98591820D01*
X156453900Y-98596900D01*
X156461520Y-98599440D01*
X156476760Y-98599440D01*
X156486920Y-98599440D01*
X156512320Y-98596900D01*
X156530100Y-98594360D01*
X156535180Y-98591820D01*
X156542800Y-98579120D01*
X156545340Y-98563880D01*
X156545340Y-98652780D01*
X156535180Y-98647700D01*
X156517400Y-98645160D01*
X156492000Y-98642620D01*
X156451360Y-98642620D01*
X156451360Y-98678180D01*
X156451360Y-98713740D01*
X156494540Y-98713740D01*
X156517400Y-98713740D01*
X156532640Y-98711200D01*
X156542800Y-98708660D01*
X156547880Y-98706120D01*
X156555500Y-98693420D01*
X156555500Y-98678180D01*
X156555500Y-98759460D01*
X156552960Y-98759460D01*
X156540260Y-98762000D01*
X156519940Y-98762000D01*
X156494540Y-98764540D01*
X156469140Y-98764540D01*
X156385320Y-98764540D01*
X156385320Y-98627380D01*
X156385320Y-98487680D01*
X156469140Y-98487680D01*
X156504700Y-98490220D01*
X156532640Y-98490220D01*
X156552960Y-98492760D01*
X156568200Y-98495300D01*
X156580900Y-98500380D01*
X156588520Y-98508000D01*
X156593600Y-98513080D01*
X156601220Y-98525780D01*
X156603760Y-98546100D01*
X156606300Y-98566420D01*
X156603760Y-98576580D01*
X156598680Y-98589280D01*
X156588520Y-98601980D01*
X156585980Y-98601980D01*
X156578360Y-98612140D01*
X156578360Y-98617220D01*
X156580900Y-98617220D01*
X156593600Y-98627380D01*
X156608840Y-98640080D01*
X156616460Y-98657860D01*
X156619000Y-98665480D01*
X156619000Y-98693420D01*
X156619000Y-98693420D01*
G36*
X156895860Y-98487680D02*
X156842520Y-98576580D01*
X156791720Y-98662940D01*
X156791720Y-98713740D01*
X156791720Y-98764540D01*
X156761240Y-98764540D01*
X156730760Y-98764540D01*
X156730760Y-98711200D01*
X156730760Y-98657860D01*
X156682500Y-98576580D01*
X156667260Y-98551180D01*
X156654560Y-98528320D01*
X156644400Y-98510540D01*
X156636780Y-98497840D01*
X156631700Y-98492760D01*
X156636780Y-98490220D01*
X156646940Y-98490220D01*
X156664720Y-98487680D01*
X156664720Y-98487680D01*
X156700280Y-98487680D01*
X156730760Y-98541020D01*
X156746000Y-98566420D01*
X156756160Y-98581660D01*
X156763780Y-98589280D01*
X156766320Y-98589280D01*
X156771400Y-98581660D01*
X156779020Y-98568960D01*
X156789180Y-98548640D01*
X156796800Y-98535940D01*
X156824740Y-98490220D01*
X156860300Y-98490220D01*
X156895860Y-98487680D01*
X156895860Y-98487680D01*
X156895860Y-98487680D01*
G37*
X156895860Y-98487680D02*
X156842520Y-98576580D01*
X156791720Y-98662940D01*
X156791720Y-98713740D01*
X156791720Y-98764540D01*
X156761240Y-98764540D01*
X156730760Y-98764540D01*
X156730760Y-98711200D01*
X156730760Y-98657860D01*
X156682500Y-98576580D01*
X156667260Y-98551180D01*
X156654560Y-98528320D01*
X156644400Y-98510540D01*
X156636780Y-98497840D01*
X156631700Y-98492760D01*
X156636780Y-98490220D01*
X156646940Y-98490220D01*
X156664720Y-98487680D01*
X156664720Y-98487680D01*
X156700280Y-98487680D01*
X156730760Y-98541020D01*
X156746000Y-98566420D01*
X156756160Y-98581660D01*
X156763780Y-98589280D01*
X156766320Y-98589280D01*
X156771400Y-98581660D01*
X156779020Y-98568960D01*
X156789180Y-98548640D01*
X156796800Y-98535940D01*
X156824740Y-98490220D01*
X156860300Y-98490220D01*
X156895860Y-98487680D01*
X156895860Y-98487680D01*
G36*
X157693420Y-98764540D02*
X157662940Y-98764540D01*
X157632460Y-98764540D01*
X157576580Y-98675640D01*
X157520700Y-98586740D01*
X157520700Y-98675640D01*
X157518160Y-98764540D01*
X157487680Y-98764540D01*
X157459740Y-98764540D01*
X157459740Y-98627380D01*
X157459740Y-98487680D01*
X157490220Y-98487680D01*
X157523240Y-98487680D01*
X157576580Y-98576580D01*
X157591820Y-98601980D01*
X157607060Y-98624840D01*
X157619760Y-98642620D01*
X157627380Y-98655320D01*
X157632460Y-98660400D01*
X157632460Y-98660400D01*
X157632460Y-98655320D01*
X157635000Y-98642620D01*
X157635000Y-98622300D01*
X157635000Y-98596900D01*
X157635000Y-98574040D01*
X157632460Y-98487680D01*
X157662940Y-98487680D01*
X157693420Y-98487680D01*
X157693420Y-98627380D01*
X157693420Y-98764540D01*
X157693420Y-98764540D01*
X157693420Y-98764540D01*
G37*
X157693420Y-98764540D02*
X157662940Y-98764540D01*
X157632460Y-98764540D01*
X157576580Y-98675640D01*
X157520700Y-98586740D01*
X157520700Y-98675640D01*
X157518160Y-98764540D01*
X157487680Y-98764540D01*
X157459740Y-98764540D01*
X157459740Y-98627380D01*
X157459740Y-98487680D01*
X157490220Y-98487680D01*
X157523240Y-98487680D01*
X157576580Y-98576580D01*
X157591820Y-98601980D01*
X157607060Y-98624840D01*
X157619760Y-98642620D01*
X157627380Y-98655320D01*
X157632460Y-98660400D01*
X157632460Y-98660400D01*
X157632460Y-98655320D01*
X157635000Y-98642620D01*
X157635000Y-98622300D01*
X157635000Y-98596900D01*
X157635000Y-98574040D01*
X157632460Y-98487680D01*
X157662940Y-98487680D01*
X157693420Y-98487680D01*
X157693420Y-98627380D01*
X157693420Y-98764540D01*
X157693420Y-98764540D01*
G36*
X159044700Y-98759460D02*
X159039620Y-98762000D01*
X159026920Y-98764540D01*
X159011680Y-98764540D01*
X158981200Y-98764540D01*
X158971040Y-98734060D01*
X158963420Y-98703580D01*
X158943100Y-98703580D01*
X158943100Y-98652780D01*
X158927860Y-98609600D01*
X158920240Y-98589280D01*
X158915160Y-98574040D01*
X158910080Y-98568960D01*
X158910080Y-98566420D01*
X158905000Y-98574040D01*
X158899920Y-98586740D01*
X158894840Y-98601980D01*
X158887220Y-98619760D01*
X158882140Y-98635000D01*
X158879600Y-98647700D01*
X158879600Y-98650240D01*
X158884680Y-98652780D01*
X158894840Y-98652780D01*
X158910080Y-98652780D01*
X158943100Y-98652780D01*
X158943100Y-98703580D01*
X158910080Y-98703580D01*
X158859280Y-98703580D01*
X158849120Y-98734060D01*
X158836420Y-98764540D01*
X158805940Y-98764540D01*
X158775460Y-98764540D01*
X158826260Y-98627380D01*
X158877060Y-98490220D01*
X158912620Y-98490220D01*
X158945640Y-98490220D01*
X158993900Y-98624840D01*
X159006600Y-98657860D01*
X159019300Y-98688340D01*
X159029460Y-98716280D01*
X159037080Y-98739140D01*
X159042160Y-98751840D01*
X159044700Y-98759460D01*
X159044700Y-98759460D01*
X159044700Y-98759460D01*
X159044700Y-98759460D01*
G37*
X159044700Y-98759460D02*
X159039620Y-98762000D01*
X159026920Y-98764540D01*
X159011680Y-98764540D01*
X158981200Y-98764540D01*
X158971040Y-98734060D01*
X158963420Y-98703580D01*
X158943100Y-98703580D01*
X158943100Y-98652780D01*
X158927860Y-98609600D01*
X158920240Y-98589280D01*
X158915160Y-98574040D01*
X158910080Y-98568960D01*
X158910080Y-98566420D01*
X158905000Y-98574040D01*
X158899920Y-98586740D01*
X158894840Y-98601980D01*
X158887220Y-98619760D01*
X158882140Y-98635000D01*
X158879600Y-98647700D01*
X158879600Y-98650240D01*
X158884680Y-98652780D01*
X158894840Y-98652780D01*
X158910080Y-98652780D01*
X158943100Y-98652780D01*
X158943100Y-98703580D01*
X158910080Y-98703580D01*
X158859280Y-98703580D01*
X158849120Y-98734060D01*
X158836420Y-98764540D01*
X158805940Y-98764540D01*
X158775460Y-98764540D01*
X158826260Y-98627380D01*
X158877060Y-98490220D01*
X158912620Y-98490220D01*
X158945640Y-98490220D01*
X158993900Y-98624840D01*
X159006600Y-98657860D01*
X159019300Y-98688340D01*
X159029460Y-98716280D01*
X159037080Y-98739140D01*
X159042160Y-98751840D01*
X159044700Y-98759460D01*
X159044700Y-98759460D01*
X159044700Y-98759460D01*
G36*
X156019560Y-97931420D02*
X156019560Y-97966980D01*
X156017020Y-98012700D01*
X156014480Y-98055880D01*
X156006860Y-98093980D01*
X155999240Y-98129540D01*
X155986540Y-98165100D01*
X155976380Y-98190500D01*
X155945900Y-98256540D01*
X155905260Y-98317500D01*
X155905260Y-98317500D01*
X155905260Y-97931420D01*
X155900180Y-97862840D01*
X155884940Y-97794260D01*
X155862080Y-97730760D01*
X155831600Y-97667260D01*
X155790960Y-97611380D01*
X155745240Y-97558040D01*
X155689360Y-97512320D01*
X155628400Y-97471680D01*
X155625860Y-97469140D01*
X155564900Y-97441200D01*
X155501400Y-97420880D01*
X155435360Y-97410720D01*
X155366780Y-97408180D01*
X155298200Y-97413260D01*
X155232160Y-97425960D01*
X155168660Y-97446280D01*
X155128020Y-97466600D01*
X155069600Y-97502160D01*
X155016260Y-97545340D01*
X154970540Y-97596140D01*
X154927360Y-97649480D01*
X154894340Y-97707900D01*
X154866400Y-97768860D01*
X154856240Y-97804420D01*
X154841000Y-97875540D01*
X154838460Y-97946660D01*
X154843540Y-98015240D01*
X154858780Y-98083820D01*
X154881640Y-98147320D01*
X154917200Y-98210820D01*
X154957840Y-98269240D01*
X155008640Y-98322580D01*
X155067060Y-98370840D01*
X155125480Y-98408940D01*
X155188980Y-98439420D01*
X155255020Y-98459740D01*
X155323600Y-98469900D01*
X155397260Y-98469900D01*
X155463300Y-98462280D01*
X155524260Y-98449580D01*
X155585220Y-98426720D01*
X155643640Y-98396240D01*
X155696980Y-98358140D01*
X155747780Y-98314960D01*
X155793500Y-98266700D01*
X155829060Y-98213360D01*
X155859540Y-98160020D01*
X155867160Y-98142240D01*
X155890020Y-98071120D01*
X155902720Y-98000000D01*
X155905260Y-97931420D01*
X155905260Y-98317500D01*
X155859540Y-98373380D01*
X155806200Y-98426720D01*
X155747780Y-98472440D01*
X155684280Y-98510540D01*
X155618240Y-98543560D01*
X155552200Y-98566420D01*
X155481080Y-98581660D01*
X155448060Y-98586740D01*
X155417580Y-98589280D01*
X155392180Y-98589280D01*
X155369320Y-98591820D01*
X155351540Y-98591820D01*
X155331220Y-98589280D01*
X155313440Y-98589280D01*
X155237240Y-98579120D01*
X155163580Y-98558800D01*
X155095000Y-98530860D01*
X155028960Y-98492760D01*
X154965460Y-98447040D01*
X154904500Y-98388620D01*
X154904500Y-98388620D01*
X154851160Y-98327660D01*
X154805440Y-98264160D01*
X154772420Y-98198120D01*
X154747020Y-98129540D01*
X154729240Y-98055880D01*
X154721620Y-97982220D01*
X154721620Y-97941580D01*
X154724160Y-97870460D01*
X154734320Y-97801880D01*
X154749560Y-97740920D01*
X154772420Y-97677420D01*
X154792740Y-97639320D01*
X154833380Y-97573280D01*
X154881640Y-97509780D01*
X154934980Y-97453900D01*
X154995940Y-97405640D01*
X155061980Y-97365000D01*
X155130560Y-97331980D01*
X155201680Y-97306580D01*
X155247400Y-97296420D01*
X155280420Y-97293880D01*
X155321060Y-97291340D01*
X155364240Y-97288800D01*
X155407420Y-97291340D01*
X155450600Y-97291340D01*
X155486160Y-97296420D01*
X155493780Y-97298960D01*
X155569980Y-97316740D01*
X155641100Y-97344680D01*
X155709680Y-97380240D01*
X155773180Y-97423420D01*
X155831600Y-97474220D01*
X155882400Y-97530100D01*
X155928120Y-97593600D01*
X155963680Y-97662180D01*
X155991620Y-97733300D01*
X155996700Y-97751080D01*
X156006860Y-97786640D01*
X156014480Y-97819660D01*
X156017020Y-97852680D01*
X156019560Y-97890780D01*
X156019560Y-97931420D01*
X156019560Y-97931420D01*
X156019560Y-97931420D01*
G37*
X156019560Y-97931420D02*
X156019560Y-97966980D01*
X156017020Y-98012700D01*
X156014480Y-98055880D01*
X156006860Y-98093980D01*
X155999240Y-98129540D01*
X155986540Y-98165100D01*
X155976380Y-98190500D01*
X155945900Y-98256540D01*
X155905260Y-98317500D01*
X155905260Y-98317500D01*
X155905260Y-97931420D01*
X155900180Y-97862840D01*
X155884940Y-97794260D01*
X155862080Y-97730760D01*
X155831600Y-97667260D01*
X155790960Y-97611380D01*
X155745240Y-97558040D01*
X155689360Y-97512320D01*
X155628400Y-97471680D01*
X155625860Y-97469140D01*
X155564900Y-97441200D01*
X155501400Y-97420880D01*
X155435360Y-97410720D01*
X155366780Y-97408180D01*
X155298200Y-97413260D01*
X155232160Y-97425960D01*
X155168660Y-97446280D01*
X155128020Y-97466600D01*
X155069600Y-97502160D01*
X155016260Y-97545340D01*
X154970540Y-97596140D01*
X154927360Y-97649480D01*
X154894340Y-97707900D01*
X154866400Y-97768860D01*
X154856240Y-97804420D01*
X154841000Y-97875540D01*
X154838460Y-97946660D01*
X154843540Y-98015240D01*
X154858780Y-98083820D01*
X154881640Y-98147320D01*
X154917200Y-98210820D01*
X154957840Y-98269240D01*
X155008640Y-98322580D01*
X155067060Y-98370840D01*
X155125480Y-98408940D01*
X155188980Y-98439420D01*
X155255020Y-98459740D01*
X155323600Y-98469900D01*
X155397260Y-98469900D01*
X155463300Y-98462280D01*
X155524260Y-98449580D01*
X155585220Y-98426720D01*
X155643640Y-98396240D01*
X155696980Y-98358140D01*
X155747780Y-98314960D01*
X155793500Y-98266700D01*
X155829060Y-98213360D01*
X155859540Y-98160020D01*
X155867160Y-98142240D01*
X155890020Y-98071120D01*
X155902720Y-98000000D01*
X155905260Y-97931420D01*
X155905260Y-98317500D01*
X155859540Y-98373380D01*
X155806200Y-98426720D01*
X155747780Y-98472440D01*
X155684280Y-98510540D01*
X155618240Y-98543560D01*
X155552200Y-98566420D01*
X155481080Y-98581660D01*
X155448060Y-98586740D01*
X155417580Y-98589280D01*
X155392180Y-98589280D01*
X155369320Y-98591820D01*
X155351540Y-98591820D01*
X155331220Y-98589280D01*
X155313440Y-98589280D01*
X155237240Y-98579120D01*
X155163580Y-98558800D01*
X155095000Y-98530860D01*
X155028960Y-98492760D01*
X154965460Y-98447040D01*
X154904500Y-98388620D01*
X154904500Y-98388620D01*
X154851160Y-98327660D01*
X154805440Y-98264160D01*
X154772420Y-98198120D01*
X154747020Y-98129540D01*
X154729240Y-98055880D01*
X154721620Y-97982220D01*
X154721620Y-97941580D01*
X154724160Y-97870460D01*
X154734320Y-97801880D01*
X154749560Y-97740920D01*
X154772420Y-97677420D01*
X154792740Y-97639320D01*
X154833380Y-97573280D01*
X154881640Y-97509780D01*
X154934980Y-97453900D01*
X154995940Y-97405640D01*
X155061980Y-97365000D01*
X155130560Y-97331980D01*
X155201680Y-97306580D01*
X155247400Y-97296420D01*
X155280420Y-97293880D01*
X155321060Y-97291340D01*
X155364240Y-97288800D01*
X155407420Y-97291340D01*
X155450600Y-97291340D01*
X155486160Y-97296420D01*
X155493780Y-97298960D01*
X155569980Y-97316740D01*
X155641100Y-97344680D01*
X155709680Y-97380240D01*
X155773180Y-97423420D01*
X155831600Y-97474220D01*
X155882400Y-97530100D01*
X155928120Y-97593600D01*
X155963680Y-97662180D01*
X155991620Y-97733300D01*
X155996700Y-97751080D01*
X156006860Y-97786640D01*
X156014480Y-97819660D01*
X156017020Y-97852680D01*
X156019560Y-97890780D01*
X156019560Y-97931420D01*
X156019560Y-97931420D01*
G36*
X157137160Y-97738380D02*
X157137160Y-97784100D01*
X157132080Y-97827280D01*
X157127000Y-97867920D01*
X157124460Y-97878080D01*
X157111760Y-97916180D01*
X157093980Y-97956820D01*
X157073660Y-97997460D01*
X157053340Y-98027940D01*
X157048260Y-98033020D01*
X157048260Y-97751080D01*
X157045720Y-97697740D01*
X157038100Y-97649480D01*
X157022860Y-97603760D01*
X157012700Y-97578360D01*
X156984760Y-97530100D01*
X156949200Y-97484380D01*
X156903480Y-97443740D01*
X156855220Y-97408180D01*
X156801880Y-97382780D01*
X156771400Y-97370080D01*
X156753620Y-97365000D01*
X156738380Y-97362460D01*
X156720600Y-97359920D01*
X156700280Y-97359920D01*
X156672340Y-97359920D01*
X156659640Y-97359920D01*
X156626620Y-97359920D01*
X156603760Y-97359920D01*
X156585980Y-97362460D01*
X156570740Y-97365000D01*
X156552960Y-97367540D01*
X156545340Y-97370080D01*
X156489460Y-97392940D01*
X156436120Y-97425960D01*
X156387860Y-97464060D01*
X156347220Y-97509780D01*
X156311660Y-97560580D01*
X156286260Y-97619000D01*
X156276100Y-97649480D01*
X156268480Y-97682500D01*
X156265940Y-97720600D01*
X156263400Y-97758700D01*
X156265940Y-97799340D01*
X156271020Y-97832360D01*
X156273560Y-97845060D01*
X156293880Y-97903480D01*
X156324360Y-97959360D01*
X156362460Y-98007620D01*
X156408180Y-98050800D01*
X156433580Y-98071120D01*
X156486920Y-98104140D01*
X156542800Y-98127000D01*
X156603760Y-98139700D01*
X156664720Y-98142240D01*
X156715520Y-98139700D01*
X156761240Y-98129540D01*
X156806960Y-98111760D01*
X156850140Y-98091440D01*
X156862840Y-98086360D01*
X156878080Y-98073660D01*
X156898400Y-98058420D01*
X156921260Y-98038100D01*
X156941580Y-98020320D01*
X156941580Y-98017780D01*
X156964440Y-97997460D01*
X156979680Y-97979680D01*
X156992380Y-97961900D01*
X157002540Y-97941580D01*
X157007620Y-97931420D01*
X157027940Y-97885700D01*
X157040640Y-97845060D01*
X157045720Y-97799340D01*
X157048260Y-97751080D01*
X157048260Y-98033020D01*
X157048260Y-98038100D01*
X157005080Y-98083820D01*
X156959360Y-98127000D01*
X156903480Y-98165100D01*
X156847600Y-98195580D01*
X156789180Y-98215900D01*
X156776480Y-98218440D01*
X156746000Y-98223520D01*
X156710440Y-98228600D01*
X156674880Y-98231140D01*
X156636780Y-98231140D01*
X156603760Y-98231140D01*
X156583440Y-98228600D01*
X156517400Y-98213360D01*
X156456440Y-98187960D01*
X156395480Y-98154940D01*
X156339600Y-98111760D01*
X156316740Y-98088900D01*
X156271020Y-98035560D01*
X156232920Y-97982220D01*
X156202440Y-97921260D01*
X156187200Y-97870460D01*
X156182120Y-97850140D01*
X156179580Y-97829820D01*
X156177040Y-97806960D01*
X156174500Y-97784100D01*
X156174500Y-97753620D01*
X156177040Y-97707900D01*
X156179580Y-97669800D01*
X156182120Y-97646940D01*
X156202440Y-97583440D01*
X156230380Y-97522480D01*
X156265940Y-97466600D01*
X156309120Y-97415800D01*
X156357380Y-97370080D01*
X156410720Y-97331980D01*
X156469140Y-97301500D01*
X156532640Y-97281180D01*
X156545340Y-97278640D01*
X156575820Y-97273560D01*
X156611380Y-97268480D01*
X156652020Y-97268480D01*
X156695200Y-97268480D01*
X156733300Y-97271020D01*
X156766320Y-97276100D01*
X156784100Y-97281180D01*
X156847600Y-97304040D01*
X156908560Y-97334520D01*
X156964440Y-97372620D01*
X157010160Y-97418340D01*
X157050800Y-97471680D01*
X157086360Y-97527560D01*
X157114300Y-97591060D01*
X157132080Y-97657100D01*
X157132080Y-97659640D01*
X157137160Y-97697740D01*
X157137160Y-97738380D01*
X157137160Y-97738380D01*
X157137160Y-97738380D01*
G37*
X157137160Y-97738380D02*
X157137160Y-97784100D01*
X157132080Y-97827280D01*
X157127000Y-97867920D01*
X157124460Y-97878080D01*
X157111760Y-97916180D01*
X157093980Y-97956820D01*
X157073660Y-97997460D01*
X157053340Y-98027940D01*
X157048260Y-98033020D01*
X157048260Y-97751080D01*
X157045720Y-97697740D01*
X157038100Y-97649480D01*
X157022860Y-97603760D01*
X157012700Y-97578360D01*
X156984760Y-97530100D01*
X156949200Y-97484380D01*
X156903480Y-97443740D01*
X156855220Y-97408180D01*
X156801880Y-97382780D01*
X156771400Y-97370080D01*
X156753620Y-97365000D01*
X156738380Y-97362460D01*
X156720600Y-97359920D01*
X156700280Y-97359920D01*
X156672340Y-97359920D01*
X156659640Y-97359920D01*
X156626620Y-97359920D01*
X156603760Y-97359920D01*
X156585980Y-97362460D01*
X156570740Y-97365000D01*
X156552960Y-97367540D01*
X156545340Y-97370080D01*
X156489460Y-97392940D01*
X156436120Y-97425960D01*
X156387860Y-97464060D01*
X156347220Y-97509780D01*
X156311660Y-97560580D01*
X156286260Y-97619000D01*
X156276100Y-97649480D01*
X156268480Y-97682500D01*
X156265940Y-97720600D01*
X156263400Y-97758700D01*
X156265940Y-97799340D01*
X156271020Y-97832360D01*
X156273560Y-97845060D01*
X156293880Y-97903480D01*
X156324360Y-97959360D01*
X156362460Y-98007620D01*
X156408180Y-98050800D01*
X156433580Y-98071120D01*
X156486920Y-98104140D01*
X156542800Y-98127000D01*
X156603760Y-98139700D01*
X156664720Y-98142240D01*
X156715520Y-98139700D01*
X156761240Y-98129540D01*
X156806960Y-98111760D01*
X156850140Y-98091440D01*
X156862840Y-98086360D01*
X156878080Y-98073660D01*
X156898400Y-98058420D01*
X156921260Y-98038100D01*
X156941580Y-98020320D01*
X156941580Y-98017780D01*
X156964440Y-97997460D01*
X156979680Y-97979680D01*
X156992380Y-97961900D01*
X157002540Y-97941580D01*
X157007620Y-97931420D01*
X157027940Y-97885700D01*
X157040640Y-97845060D01*
X157045720Y-97799340D01*
X157048260Y-97751080D01*
X157048260Y-98033020D01*
X157048260Y-98038100D01*
X157005080Y-98083820D01*
X156959360Y-98127000D01*
X156903480Y-98165100D01*
X156847600Y-98195580D01*
X156789180Y-98215900D01*
X156776480Y-98218440D01*
X156746000Y-98223520D01*
X156710440Y-98228600D01*
X156674880Y-98231140D01*
X156636780Y-98231140D01*
X156603760Y-98231140D01*
X156583440Y-98228600D01*
X156517400Y-98213360D01*
X156456440Y-98187960D01*
X156395480Y-98154940D01*
X156339600Y-98111760D01*
X156316740Y-98088900D01*
X156271020Y-98035560D01*
X156232920Y-97982220D01*
X156202440Y-97921260D01*
X156187200Y-97870460D01*
X156182120Y-97850140D01*
X156179580Y-97829820D01*
X156177040Y-97806960D01*
X156174500Y-97784100D01*
X156174500Y-97753620D01*
X156177040Y-97707900D01*
X156179580Y-97669800D01*
X156182120Y-97646940D01*
X156202440Y-97583440D01*
X156230380Y-97522480D01*
X156265940Y-97466600D01*
X156309120Y-97415800D01*
X156357380Y-97370080D01*
X156410720Y-97331980D01*
X156469140Y-97301500D01*
X156532640Y-97281180D01*
X156545340Y-97278640D01*
X156575820Y-97273560D01*
X156611380Y-97268480D01*
X156652020Y-97268480D01*
X156695200Y-97268480D01*
X156733300Y-97271020D01*
X156766320Y-97276100D01*
X156784100Y-97281180D01*
X156847600Y-97304040D01*
X156908560Y-97334520D01*
X156964440Y-97372620D01*
X157010160Y-97418340D01*
X157050800Y-97471680D01*
X157086360Y-97527560D01*
X157114300Y-97591060D01*
X157132080Y-97657100D01*
X157132080Y-97659640D01*
X157137160Y-97697740D01*
X157137160Y-97738380D01*
X157137160Y-97738380D01*
G36*
X158226820Y-97763780D02*
X158224280Y-97801880D01*
X158219200Y-97845060D01*
X158211580Y-97880620D01*
X158201420Y-97916180D01*
X158186180Y-97951740D01*
X158183640Y-97954280D01*
X158160780Y-97997460D01*
X158137920Y-98030480D01*
X158137920Y-97746000D01*
X158132840Y-97685040D01*
X158117600Y-97626620D01*
X158094740Y-97570740D01*
X158064260Y-97519940D01*
X158023620Y-97474220D01*
X157977900Y-97433580D01*
X157924560Y-97398020D01*
X157914400Y-97392940D01*
X157871220Y-97375160D01*
X157828040Y-97362460D01*
X157779780Y-97357380D01*
X157726440Y-97357380D01*
X157695960Y-97357380D01*
X157673100Y-97359920D01*
X157655320Y-97362460D01*
X157637540Y-97367540D01*
X157617220Y-97375160D01*
X157594360Y-97382780D01*
X157568960Y-97395480D01*
X157548640Y-97405640D01*
X157546100Y-97408180D01*
X157530860Y-97415800D01*
X157513080Y-97431040D01*
X157492760Y-97448820D01*
X157469900Y-97469140D01*
X157452120Y-97486920D01*
X157434340Y-97504700D01*
X157424180Y-97519940D01*
X157419100Y-97525020D01*
X157416560Y-97532640D01*
X157419100Y-97537720D01*
X157429260Y-97542800D01*
X157439420Y-97547880D01*
X157457200Y-97555500D01*
X157480060Y-97565660D01*
X157505460Y-97575820D01*
X157520700Y-97583440D01*
X157594360Y-97616460D01*
X157607060Y-97593600D01*
X157624840Y-97570740D01*
X157650240Y-97552960D01*
X157678180Y-97540260D01*
X157690880Y-97535180D01*
X157718820Y-97530100D01*
X157718820Y-97492000D01*
X157718820Y-97456440D01*
X157746760Y-97456440D01*
X157774700Y-97456440D01*
X157774700Y-97492000D01*
X157774700Y-97530100D01*
X157805180Y-97535180D01*
X157822960Y-97540260D01*
X157843280Y-97547880D01*
X157863600Y-97555500D01*
X157878840Y-97563120D01*
X157889000Y-97570740D01*
X157891540Y-97573280D01*
X157889000Y-97578360D01*
X157881380Y-97591060D01*
X157871220Y-97603760D01*
X157866140Y-97611380D01*
X157835660Y-97641860D01*
X157807720Y-97629160D01*
X157782320Y-97619000D01*
X157756920Y-97613920D01*
X157734060Y-97616460D01*
X157713740Y-97621540D01*
X157701040Y-97631700D01*
X157695960Y-97646940D01*
X157695960Y-97646940D01*
X157695960Y-97652020D01*
X157698500Y-97654560D01*
X157701040Y-97659640D01*
X157708660Y-97662180D01*
X157718820Y-97669800D01*
X157731520Y-97674880D01*
X157751840Y-97685040D01*
X157777240Y-97697740D01*
X157807720Y-97710440D01*
X157845820Y-97728220D01*
X157894080Y-97751080D01*
X157906780Y-97756160D01*
X157949960Y-97773940D01*
X157990600Y-97794260D01*
X158026160Y-97809500D01*
X158059180Y-97824740D01*
X158084580Y-97834900D01*
X158104900Y-97842520D01*
X158117600Y-97850140D01*
X158122680Y-97850140D01*
X158125220Y-97845060D01*
X158130300Y-97832360D01*
X158132840Y-97812040D01*
X158132840Y-97806960D01*
X158137920Y-97746000D01*
X158137920Y-98030480D01*
X158135380Y-98033020D01*
X158104900Y-98068580D01*
X158082040Y-98093980D01*
X158082040Y-97946660D01*
X158076960Y-97939040D01*
X158064260Y-97931420D01*
X158043940Y-97921260D01*
X158016000Y-97908560D01*
X158000760Y-97903480D01*
X157911860Y-97862840D01*
X157896620Y-97893320D01*
X157876300Y-97923800D01*
X157850900Y-97944120D01*
X157817880Y-97959360D01*
X157812800Y-97961900D01*
X157795020Y-97966980D01*
X157782320Y-97972060D01*
X157777240Y-97982220D01*
X157774700Y-97994920D01*
X157774700Y-98005080D01*
X157772160Y-98038100D01*
X157746760Y-98038100D01*
X157718820Y-98038100D01*
X157718820Y-98005080D01*
X157718820Y-97989840D01*
X157718820Y-97977140D01*
X157713740Y-97972060D01*
X157703580Y-97969520D01*
X157688340Y-97964440D01*
X157675640Y-97964440D01*
X157657860Y-97959360D01*
X157635000Y-97949200D01*
X157612140Y-97939040D01*
X157591820Y-97926340D01*
X157584200Y-97921260D01*
X157571500Y-97911100D01*
X157604520Y-97878080D01*
X157622300Y-97860300D01*
X157635000Y-97850140D01*
X157642620Y-97847600D01*
X157645160Y-97847600D01*
X157670560Y-97865380D01*
X157693420Y-97878080D01*
X157713740Y-97883160D01*
X157739140Y-97885700D01*
X157741680Y-97885700D01*
X157769620Y-97883160D01*
X157789940Y-97873000D01*
X157802640Y-97857760D01*
X157802640Y-97857760D01*
X157807720Y-97842520D01*
X157805180Y-97827280D01*
X157805180Y-97827280D01*
X157802640Y-97822200D01*
X157797560Y-97819660D01*
X157792480Y-97814580D01*
X157782320Y-97809500D01*
X157767080Y-97801880D01*
X157749300Y-97791720D01*
X157723900Y-97779020D01*
X157690880Y-97766320D01*
X157652780Y-97748540D01*
X157607060Y-97728220D01*
X157584200Y-97718060D01*
X157541020Y-97697740D01*
X157500380Y-97679960D01*
X157464820Y-97664720D01*
X157431800Y-97652020D01*
X157406400Y-97639320D01*
X157386080Y-97631700D01*
X157373380Y-97626620D01*
X157368300Y-97626620D01*
X157363220Y-97634240D01*
X157358140Y-97649480D01*
X157355600Y-97672340D01*
X157350520Y-97697740D01*
X157350520Y-97723140D01*
X157347980Y-97748540D01*
X157347980Y-97753620D01*
X157353060Y-97812040D01*
X157365760Y-97870460D01*
X157388620Y-97923800D01*
X157419100Y-97972060D01*
X157454660Y-98015240D01*
X157495300Y-98053340D01*
X157541020Y-98086360D01*
X157591820Y-98111760D01*
X157647700Y-98132080D01*
X157703580Y-98142240D01*
X157762000Y-98142240D01*
X157800100Y-98139700D01*
X157861060Y-98124460D01*
X157919480Y-98099060D01*
X157972820Y-98068580D01*
X158021080Y-98027940D01*
X158051560Y-97997460D01*
X158064260Y-97979680D01*
X158076960Y-97964440D01*
X158082040Y-97954280D01*
X158082040Y-97946660D01*
X158082040Y-98093980D01*
X158079500Y-98096520D01*
X158023620Y-98142240D01*
X157967740Y-98177800D01*
X157906780Y-98205740D01*
X157848360Y-98220980D01*
X157817880Y-98226060D01*
X157782320Y-98228600D01*
X157746760Y-98231140D01*
X157711200Y-98231140D01*
X157680720Y-98228600D01*
X157675640Y-98228600D01*
X157609600Y-98215900D01*
X157548640Y-98193040D01*
X157490220Y-98160020D01*
X157434340Y-98119380D01*
X157391160Y-98076200D01*
X157347980Y-98025400D01*
X157314960Y-97977140D01*
X157289560Y-97923800D01*
X157271780Y-97867920D01*
X157261620Y-97804420D01*
X157261620Y-97768860D01*
X157259080Y-97735840D01*
X157259080Y-97710440D01*
X157261620Y-97690120D01*
X157264160Y-97667260D01*
X157266700Y-97652020D01*
X157287020Y-97585980D01*
X157312420Y-97525020D01*
X157347980Y-97466600D01*
X157391160Y-97415800D01*
X157441960Y-97370080D01*
X157497840Y-97331980D01*
X157533400Y-97311660D01*
X157579120Y-97291340D01*
X157622300Y-97278640D01*
X157670560Y-97271020D01*
X157718820Y-97268480D01*
X157789940Y-97268480D01*
X157858520Y-97278640D01*
X157919480Y-97296420D01*
X157980440Y-97324360D01*
X158036320Y-97362460D01*
X158076960Y-97398020D01*
X158122680Y-97446280D01*
X158160780Y-97502160D01*
X158191260Y-97563120D01*
X158211580Y-97626620D01*
X158224280Y-97692660D01*
X158226820Y-97763780D01*
X158226820Y-97763780D01*
X158226820Y-97763780D01*
G37*
X158226820Y-97763780D02*
X158224280Y-97801880D01*
X158219200Y-97845060D01*
X158211580Y-97880620D01*
X158201420Y-97916180D01*
X158186180Y-97951740D01*
X158183640Y-97954280D01*
X158160780Y-97997460D01*
X158137920Y-98030480D01*
X158137920Y-97746000D01*
X158132840Y-97685040D01*
X158117600Y-97626620D01*
X158094740Y-97570740D01*
X158064260Y-97519940D01*
X158023620Y-97474220D01*
X157977900Y-97433580D01*
X157924560Y-97398020D01*
X157914400Y-97392940D01*
X157871220Y-97375160D01*
X157828040Y-97362460D01*
X157779780Y-97357380D01*
X157726440Y-97357380D01*
X157695960Y-97357380D01*
X157673100Y-97359920D01*
X157655320Y-97362460D01*
X157637540Y-97367540D01*
X157617220Y-97375160D01*
X157594360Y-97382780D01*
X157568960Y-97395480D01*
X157548640Y-97405640D01*
X157546100Y-97408180D01*
X157530860Y-97415800D01*
X157513080Y-97431040D01*
X157492760Y-97448820D01*
X157469900Y-97469140D01*
X157452120Y-97486920D01*
X157434340Y-97504700D01*
X157424180Y-97519940D01*
X157419100Y-97525020D01*
X157416560Y-97532640D01*
X157419100Y-97537720D01*
X157429260Y-97542800D01*
X157439420Y-97547880D01*
X157457200Y-97555500D01*
X157480060Y-97565660D01*
X157505460Y-97575820D01*
X157520700Y-97583440D01*
X157594360Y-97616460D01*
X157607060Y-97593600D01*
X157624840Y-97570740D01*
X157650240Y-97552960D01*
X157678180Y-97540260D01*
X157690880Y-97535180D01*
X157718820Y-97530100D01*
X157718820Y-97492000D01*
X157718820Y-97456440D01*
X157746760Y-97456440D01*
X157774700Y-97456440D01*
X157774700Y-97492000D01*
X157774700Y-97530100D01*
X157805180Y-97535180D01*
X157822960Y-97540260D01*
X157843280Y-97547880D01*
X157863600Y-97555500D01*
X157878840Y-97563120D01*
X157889000Y-97570740D01*
X157891540Y-97573280D01*
X157889000Y-97578360D01*
X157881380Y-97591060D01*
X157871220Y-97603760D01*
X157866140Y-97611380D01*
X157835660Y-97641860D01*
X157807720Y-97629160D01*
X157782320Y-97619000D01*
X157756920Y-97613920D01*
X157734060Y-97616460D01*
X157713740Y-97621540D01*
X157701040Y-97631700D01*
X157695960Y-97646940D01*
X157695960Y-97646940D01*
X157695960Y-97652020D01*
X157698500Y-97654560D01*
X157701040Y-97659640D01*
X157708660Y-97662180D01*
X157718820Y-97669800D01*
X157731520Y-97674880D01*
X157751840Y-97685040D01*
X157777240Y-97697740D01*
X157807720Y-97710440D01*
X157845820Y-97728220D01*
X157894080Y-97751080D01*
X157906780Y-97756160D01*
X157949960Y-97773940D01*
X157990600Y-97794260D01*
X158026160Y-97809500D01*
X158059180Y-97824740D01*
X158084580Y-97834900D01*
X158104900Y-97842520D01*
X158117600Y-97850140D01*
X158122680Y-97850140D01*
X158125220Y-97845060D01*
X158130300Y-97832360D01*
X158132840Y-97812040D01*
X158132840Y-97806960D01*
X158137920Y-97746000D01*
X158137920Y-98030480D01*
X158135380Y-98033020D01*
X158104900Y-98068580D01*
X158082040Y-98093980D01*
X158082040Y-97946660D01*
X158076960Y-97939040D01*
X158064260Y-97931420D01*
X158043940Y-97921260D01*
X158016000Y-97908560D01*
X158000760Y-97903480D01*
X157911860Y-97862840D01*
X157896620Y-97893320D01*
X157876300Y-97923800D01*
X157850900Y-97944120D01*
X157817880Y-97959360D01*
X157812800Y-97961900D01*
X157795020Y-97966980D01*
X157782320Y-97972060D01*
X157777240Y-97982220D01*
X157774700Y-97994920D01*
X157774700Y-98005080D01*
X157772160Y-98038100D01*
X157746760Y-98038100D01*
X157718820Y-98038100D01*
X157718820Y-98005080D01*
X157718820Y-97989840D01*
X157718820Y-97977140D01*
X157713740Y-97972060D01*
X157703580Y-97969520D01*
X157688340Y-97964440D01*
X157675640Y-97964440D01*
X157657860Y-97959360D01*
X157635000Y-97949200D01*
X157612140Y-97939040D01*
X157591820Y-97926340D01*
X157584200Y-97921260D01*
X157571500Y-97911100D01*
X157604520Y-97878080D01*
X157622300Y-97860300D01*
X157635000Y-97850140D01*
X157642620Y-97847600D01*
X157645160Y-97847600D01*
X157670560Y-97865380D01*
X157693420Y-97878080D01*
X157713740Y-97883160D01*
X157739140Y-97885700D01*
X157741680Y-97885700D01*
X157769620Y-97883160D01*
X157789940Y-97873000D01*
X157802640Y-97857760D01*
X157802640Y-97857760D01*
X157807720Y-97842520D01*
X157805180Y-97827280D01*
X157805180Y-97827280D01*
X157802640Y-97822200D01*
X157797560Y-97819660D01*
X157792480Y-97814580D01*
X157782320Y-97809500D01*
X157767080Y-97801880D01*
X157749300Y-97791720D01*
X157723900Y-97779020D01*
X157690880Y-97766320D01*
X157652780Y-97748540D01*
X157607060Y-97728220D01*
X157584200Y-97718060D01*
X157541020Y-97697740D01*
X157500380Y-97679960D01*
X157464820Y-97664720D01*
X157431800Y-97652020D01*
X157406400Y-97639320D01*
X157386080Y-97631700D01*
X157373380Y-97626620D01*
X157368300Y-97626620D01*
X157363220Y-97634240D01*
X157358140Y-97649480D01*
X157355600Y-97672340D01*
X157350520Y-97697740D01*
X157350520Y-97723140D01*
X157347980Y-97748540D01*
X157347980Y-97753620D01*
X157353060Y-97812040D01*
X157365760Y-97870460D01*
X157388620Y-97923800D01*
X157419100Y-97972060D01*
X157454660Y-98015240D01*
X157495300Y-98053340D01*
X157541020Y-98086360D01*
X157591820Y-98111760D01*
X157647700Y-98132080D01*
X157703580Y-98142240D01*
X157762000Y-98142240D01*
X157800100Y-98139700D01*
X157861060Y-98124460D01*
X157919480Y-98099060D01*
X157972820Y-98068580D01*
X158021080Y-98027940D01*
X158051560Y-97997460D01*
X158064260Y-97979680D01*
X158076960Y-97964440D01*
X158082040Y-97954280D01*
X158082040Y-97946660D01*
X158082040Y-98093980D01*
X158079500Y-98096520D01*
X158023620Y-98142240D01*
X157967740Y-98177800D01*
X157906780Y-98205740D01*
X157848360Y-98220980D01*
X157817880Y-98226060D01*
X157782320Y-98228600D01*
X157746760Y-98231140D01*
X157711200Y-98231140D01*
X157680720Y-98228600D01*
X157675640Y-98228600D01*
X157609600Y-98215900D01*
X157548640Y-98193040D01*
X157490220Y-98160020D01*
X157434340Y-98119380D01*
X157391160Y-98076200D01*
X157347980Y-98025400D01*
X157314960Y-97977140D01*
X157289560Y-97923800D01*
X157271780Y-97867920D01*
X157261620Y-97804420D01*
X157261620Y-97768860D01*
X157259080Y-97735840D01*
X157259080Y-97710440D01*
X157261620Y-97690120D01*
X157264160Y-97667260D01*
X157266700Y-97652020D01*
X157287020Y-97585980D01*
X157312420Y-97525020D01*
X157347980Y-97466600D01*
X157391160Y-97415800D01*
X157441960Y-97370080D01*
X157497840Y-97331980D01*
X157533400Y-97311660D01*
X157579120Y-97291340D01*
X157622300Y-97278640D01*
X157670560Y-97271020D01*
X157718820Y-97268480D01*
X157789940Y-97268480D01*
X157858520Y-97278640D01*
X157919480Y-97296420D01*
X157980440Y-97324360D01*
X158036320Y-97362460D01*
X158076960Y-97398020D01*
X158122680Y-97446280D01*
X158160780Y-97502160D01*
X158191260Y-97563120D01*
X158211580Y-97626620D01*
X158224280Y-97692660D01*
X158226820Y-97763780D01*
X158226820Y-97763780D01*
G36*
X159311400Y-97761240D02*
X159311400Y-97801880D01*
X159308860Y-97834900D01*
X159303780Y-97862840D01*
X159303780Y-97867920D01*
X159280920Y-97933960D01*
X159250440Y-97994920D01*
X159222500Y-98030480D01*
X159222500Y-97766320D01*
X159222500Y-97735840D01*
X159219960Y-97695200D01*
X159214880Y-97662180D01*
X159207260Y-97631700D01*
X159197100Y-97601220D01*
X159184400Y-97573280D01*
X159153920Y-97522480D01*
X159115820Y-97476760D01*
X159070100Y-97436120D01*
X159019300Y-97403100D01*
X158965960Y-97377700D01*
X158950720Y-97372620D01*
X158915160Y-97365000D01*
X158874520Y-97357380D01*
X158828800Y-97357380D01*
X158788160Y-97357380D01*
X158750060Y-97362460D01*
X158744980Y-97362460D01*
X158689100Y-97380240D01*
X158633220Y-97408180D01*
X158584960Y-97441200D01*
X158539240Y-97484380D01*
X158503680Y-97532640D01*
X158470660Y-97585980D01*
X158452880Y-97631700D01*
X158445260Y-97652020D01*
X158442720Y-97667260D01*
X158440180Y-97682500D01*
X158437640Y-97700280D01*
X158437640Y-97720600D01*
X158437640Y-97748540D01*
X158437640Y-97791720D01*
X158442720Y-97827280D01*
X158450340Y-97860300D01*
X158460500Y-97893320D01*
X158473200Y-97918720D01*
X158496060Y-97956820D01*
X158526540Y-97997460D01*
X158559560Y-98033020D01*
X158597660Y-98063500D01*
X158630680Y-98088900D01*
X158681480Y-98114300D01*
X158739900Y-98132080D01*
X158798320Y-98139700D01*
X158856740Y-98142240D01*
X158915160Y-98132080D01*
X158932940Y-98129540D01*
X158986280Y-98109220D01*
X159037080Y-98081280D01*
X159085340Y-98048260D01*
X159125980Y-98007620D01*
X159161540Y-97966980D01*
X159189480Y-97918720D01*
X159192020Y-97913640D01*
X159209800Y-97867920D01*
X159219960Y-97819660D01*
X159222500Y-97766320D01*
X159222500Y-98030480D01*
X159212340Y-98048260D01*
X159164080Y-98099060D01*
X159123440Y-98134620D01*
X159065020Y-98172720D01*
X159001520Y-98200660D01*
X158938020Y-98220980D01*
X158869440Y-98231140D01*
X158798320Y-98231140D01*
X158750060Y-98226060D01*
X158686560Y-98210820D01*
X158623060Y-98187960D01*
X158567180Y-98154940D01*
X158511300Y-98111760D01*
X158463040Y-98063500D01*
X158455420Y-98053340D01*
X158414780Y-98000000D01*
X158384300Y-97941580D01*
X158361440Y-97880620D01*
X158348740Y-97814580D01*
X158343660Y-97748540D01*
X158348740Y-97682500D01*
X158363980Y-97616460D01*
X158386840Y-97552960D01*
X158394460Y-97537720D01*
X158427480Y-97479300D01*
X158468120Y-97428500D01*
X158516380Y-97380240D01*
X158569720Y-97339600D01*
X158628140Y-97309120D01*
X158689100Y-97283720D01*
X158704340Y-97281180D01*
X158722120Y-97276100D01*
X158737360Y-97273560D01*
X158757680Y-97271020D01*
X158778000Y-97271020D01*
X158805940Y-97268480D01*
X158831340Y-97268480D01*
X158864360Y-97268480D01*
X158892300Y-97271020D01*
X158912620Y-97271020D01*
X158930400Y-97273560D01*
X158948180Y-97278640D01*
X158955800Y-97281180D01*
X158996440Y-97293880D01*
X159039620Y-97311660D01*
X159080260Y-97334520D01*
X159110740Y-97352300D01*
X159133600Y-97370080D01*
X159156460Y-97392940D01*
X159181860Y-97418340D01*
X159207260Y-97443740D01*
X159225040Y-97466600D01*
X159232660Y-97476760D01*
X159250440Y-97507240D01*
X159268220Y-97542800D01*
X159286000Y-97580900D01*
X159298700Y-97616460D01*
X159298700Y-97624080D01*
X159306320Y-97649480D01*
X159308860Y-97685040D01*
X159311400Y-97723140D01*
X159311400Y-97761240D01*
X159311400Y-97761240D01*
X159311400Y-97761240D01*
G37*
X159311400Y-97761240D02*
X159311400Y-97801880D01*
X159308860Y-97834900D01*
X159303780Y-97862840D01*
X159303780Y-97867920D01*
X159280920Y-97933960D01*
X159250440Y-97994920D01*
X159222500Y-98030480D01*
X159222500Y-97766320D01*
X159222500Y-97735840D01*
X159219960Y-97695200D01*
X159214880Y-97662180D01*
X159207260Y-97631700D01*
X159197100Y-97601220D01*
X159184400Y-97573280D01*
X159153920Y-97522480D01*
X159115820Y-97476760D01*
X159070100Y-97436120D01*
X159019300Y-97403100D01*
X158965960Y-97377700D01*
X158950720Y-97372620D01*
X158915160Y-97365000D01*
X158874520Y-97357380D01*
X158828800Y-97357380D01*
X158788160Y-97357380D01*
X158750060Y-97362460D01*
X158744980Y-97362460D01*
X158689100Y-97380240D01*
X158633220Y-97408180D01*
X158584960Y-97441200D01*
X158539240Y-97484380D01*
X158503680Y-97532640D01*
X158470660Y-97585980D01*
X158452880Y-97631700D01*
X158445260Y-97652020D01*
X158442720Y-97667260D01*
X158440180Y-97682500D01*
X158437640Y-97700280D01*
X158437640Y-97720600D01*
X158437640Y-97748540D01*
X158437640Y-97791720D01*
X158442720Y-97827280D01*
X158450340Y-97860300D01*
X158460500Y-97893320D01*
X158473200Y-97918720D01*
X158496060Y-97956820D01*
X158526540Y-97997460D01*
X158559560Y-98033020D01*
X158597660Y-98063500D01*
X158630680Y-98088900D01*
X158681480Y-98114300D01*
X158739900Y-98132080D01*
X158798320Y-98139700D01*
X158856740Y-98142240D01*
X158915160Y-98132080D01*
X158932940Y-98129540D01*
X158986280Y-98109220D01*
X159037080Y-98081280D01*
X159085340Y-98048260D01*
X159125980Y-98007620D01*
X159161540Y-97966980D01*
X159189480Y-97918720D01*
X159192020Y-97913640D01*
X159209800Y-97867920D01*
X159219960Y-97819660D01*
X159222500Y-97766320D01*
X159222500Y-98030480D01*
X159212340Y-98048260D01*
X159164080Y-98099060D01*
X159123440Y-98134620D01*
X159065020Y-98172720D01*
X159001520Y-98200660D01*
X158938020Y-98220980D01*
X158869440Y-98231140D01*
X158798320Y-98231140D01*
X158750060Y-98226060D01*
X158686560Y-98210820D01*
X158623060Y-98187960D01*
X158567180Y-98154940D01*
X158511300Y-98111760D01*
X158463040Y-98063500D01*
X158455420Y-98053340D01*
X158414780Y-98000000D01*
X158384300Y-97941580D01*
X158361440Y-97880620D01*
X158348740Y-97814580D01*
X158343660Y-97748540D01*
X158348740Y-97682500D01*
X158363980Y-97616460D01*
X158386840Y-97552960D01*
X158394460Y-97537720D01*
X158427480Y-97479300D01*
X158468120Y-97428500D01*
X158516380Y-97380240D01*
X158569720Y-97339600D01*
X158628140Y-97309120D01*
X158689100Y-97283720D01*
X158704340Y-97281180D01*
X158722120Y-97276100D01*
X158737360Y-97273560D01*
X158757680Y-97271020D01*
X158778000Y-97271020D01*
X158805940Y-97268480D01*
X158831340Y-97268480D01*
X158864360Y-97268480D01*
X158892300Y-97271020D01*
X158912620Y-97271020D01*
X158930400Y-97273560D01*
X158948180Y-97278640D01*
X158955800Y-97281180D01*
X158996440Y-97293880D01*
X159039620Y-97311660D01*
X159080260Y-97334520D01*
X159110740Y-97352300D01*
X159133600Y-97370080D01*
X159156460Y-97392940D01*
X159181860Y-97418340D01*
X159207260Y-97443740D01*
X159225040Y-97466600D01*
X159232660Y-97476760D01*
X159250440Y-97507240D01*
X159268220Y-97542800D01*
X159286000Y-97580900D01*
X159298700Y-97616460D01*
X159298700Y-97624080D01*
X159306320Y-97649480D01*
X159308860Y-97685040D01*
X159311400Y-97723140D01*
X159311400Y-97761240D01*
X159311400Y-97761240D01*
G36*
X155366780Y-98040640D02*
X155356620Y-98053340D01*
X155343920Y-98073660D01*
X155323600Y-98091440D01*
X155303280Y-98109220D01*
X155282960Y-98121920D01*
X155277880Y-98124460D01*
X155242320Y-98134620D01*
X155199140Y-98139700D01*
X155168660Y-98137160D01*
X155125480Y-98129540D01*
X155087380Y-98114300D01*
X155056900Y-98088900D01*
X155031500Y-98058420D01*
X155013720Y-98022860D01*
X155003560Y-97982220D01*
X155001020Y-97933960D01*
X155003560Y-97921260D01*
X155008640Y-97878080D01*
X155021340Y-97842520D01*
X155044200Y-97809500D01*
X155051820Y-97799340D01*
X155084840Y-97771400D01*
X155120400Y-97751080D01*
X155161040Y-97740920D01*
X155206760Y-97738380D01*
X155227080Y-97740920D01*
X155249940Y-97746000D01*
X155272800Y-97753620D01*
X155290580Y-97758700D01*
X155305820Y-97768860D01*
X155321060Y-97781560D01*
X155336300Y-97796800D01*
X155351540Y-97809500D01*
X155359160Y-97822200D01*
X155361700Y-97829820D01*
X155356620Y-97834900D01*
X155346460Y-97842520D01*
X155328680Y-97852680D01*
X155321060Y-97855220D01*
X155280420Y-97875540D01*
X155257560Y-97850140D01*
X155244860Y-97837440D01*
X155234700Y-97829820D01*
X155224540Y-97827280D01*
X155211840Y-97827280D01*
X155204220Y-97827280D01*
X155176280Y-97829820D01*
X155153420Y-97842520D01*
X155135640Y-97862840D01*
X155133100Y-97865380D01*
X155128020Y-97883160D01*
X155122940Y-97908560D01*
X155120400Y-97936500D01*
X155122940Y-97964440D01*
X155125480Y-97989840D01*
X155128020Y-98000000D01*
X155140720Y-98022860D01*
X155155960Y-98040640D01*
X155178820Y-98048260D01*
X155204220Y-98050800D01*
X155229620Y-98048260D01*
X155249940Y-98040640D01*
X155265180Y-98025400D01*
X155272800Y-98015240D01*
X155280420Y-98005080D01*
X155288040Y-98000000D01*
X155288040Y-98000000D01*
X155293120Y-98000000D01*
X155305820Y-98007620D01*
X155323600Y-98015240D01*
X155328680Y-98020320D01*
X155366780Y-98040640D01*
X155366780Y-98040640D01*
X155366780Y-98040640D01*
G37*
X155366780Y-98040640D02*
X155356620Y-98053340D01*
X155343920Y-98073660D01*
X155323600Y-98091440D01*
X155303280Y-98109220D01*
X155282960Y-98121920D01*
X155277880Y-98124460D01*
X155242320Y-98134620D01*
X155199140Y-98139700D01*
X155168660Y-98137160D01*
X155125480Y-98129540D01*
X155087380Y-98114300D01*
X155056900Y-98088900D01*
X155031500Y-98058420D01*
X155013720Y-98022860D01*
X155003560Y-97982220D01*
X155001020Y-97933960D01*
X155003560Y-97921260D01*
X155008640Y-97878080D01*
X155021340Y-97842520D01*
X155044200Y-97809500D01*
X155051820Y-97799340D01*
X155084840Y-97771400D01*
X155120400Y-97751080D01*
X155161040Y-97740920D01*
X155206760Y-97738380D01*
X155227080Y-97740920D01*
X155249940Y-97746000D01*
X155272800Y-97753620D01*
X155290580Y-97758700D01*
X155305820Y-97768860D01*
X155321060Y-97781560D01*
X155336300Y-97796800D01*
X155351540Y-97809500D01*
X155359160Y-97822200D01*
X155361700Y-97829820D01*
X155356620Y-97834900D01*
X155346460Y-97842520D01*
X155328680Y-97852680D01*
X155321060Y-97855220D01*
X155280420Y-97875540D01*
X155257560Y-97850140D01*
X155244860Y-97837440D01*
X155234700Y-97829820D01*
X155224540Y-97827280D01*
X155211840Y-97827280D01*
X155204220Y-97827280D01*
X155176280Y-97829820D01*
X155153420Y-97842520D01*
X155135640Y-97862840D01*
X155133100Y-97865380D01*
X155128020Y-97883160D01*
X155122940Y-97908560D01*
X155120400Y-97936500D01*
X155122940Y-97964440D01*
X155125480Y-97989840D01*
X155128020Y-98000000D01*
X155140720Y-98022860D01*
X155155960Y-98040640D01*
X155178820Y-98048260D01*
X155204220Y-98050800D01*
X155229620Y-98048260D01*
X155249940Y-98040640D01*
X155265180Y-98025400D01*
X155272800Y-98015240D01*
X155280420Y-98005080D01*
X155288040Y-98000000D01*
X155288040Y-98000000D01*
X155293120Y-98000000D01*
X155305820Y-98007620D01*
X155323600Y-98015240D01*
X155328680Y-98020320D01*
X155366780Y-98040640D01*
X155366780Y-98040640D01*
G36*
X155737620Y-98038100D02*
X155737620Y-98045720D01*
X155732540Y-98055880D01*
X155724920Y-98066040D01*
X155696980Y-98096520D01*
X155663960Y-98119380D01*
X155628400Y-98132080D01*
X155587760Y-98139700D01*
X155542040Y-98137160D01*
X155503940Y-98132080D01*
X155473460Y-98116840D01*
X155442980Y-98096520D01*
X155437900Y-98091440D01*
X155412500Y-98060960D01*
X155392180Y-98025400D01*
X155382020Y-97984760D01*
X155379480Y-97977140D01*
X155379480Y-97931420D01*
X155384560Y-97888240D01*
X155397260Y-97847600D01*
X155417580Y-97812040D01*
X155442980Y-97781560D01*
X155473460Y-97761240D01*
X155493780Y-97751080D01*
X155531880Y-97740920D01*
X155572520Y-97738380D01*
X155615700Y-97743460D01*
X155653800Y-97753620D01*
X155658880Y-97756160D01*
X155676660Y-97766320D01*
X155696980Y-97781560D01*
X155714760Y-97796800D01*
X155730000Y-97814580D01*
X155732540Y-97822200D01*
X155737620Y-97827280D01*
X155737620Y-97832360D01*
X155732540Y-97837440D01*
X155722380Y-97842520D01*
X155704600Y-97852680D01*
X155696980Y-97855220D01*
X155656340Y-97875540D01*
X155630940Y-97850140D01*
X155618240Y-97837440D01*
X155608080Y-97829820D01*
X155600460Y-97827280D01*
X155585220Y-97827280D01*
X155580140Y-97827280D01*
X155552200Y-97829820D01*
X155531880Y-97839980D01*
X155514100Y-97860300D01*
X155506480Y-97873000D01*
X155498860Y-97898400D01*
X155493780Y-97931420D01*
X155493780Y-97961900D01*
X155498860Y-97992380D01*
X155503940Y-98005080D01*
X155519180Y-98027940D01*
X155539500Y-98043180D01*
X155564900Y-98050800D01*
X155590300Y-98053340D01*
X155613160Y-98045720D01*
X155636020Y-98030480D01*
X155646180Y-98017780D01*
X155656340Y-98007620D01*
X155656340Y-98002540D01*
X155658880Y-98000000D01*
X155666500Y-98002540D01*
X155679200Y-98007620D01*
X155696980Y-98015240D01*
X155714760Y-98025400D01*
X155727460Y-98033020D01*
X155737620Y-98038100D01*
X155737620Y-98038100D01*
X155737620Y-98038100D01*
X155737620Y-98038100D01*
G37*
X155737620Y-98038100D02*
X155737620Y-98045720D01*
X155732540Y-98055880D01*
X155724920Y-98066040D01*
X155696980Y-98096520D01*
X155663960Y-98119380D01*
X155628400Y-98132080D01*
X155587760Y-98139700D01*
X155542040Y-98137160D01*
X155503940Y-98132080D01*
X155473460Y-98116840D01*
X155442980Y-98096520D01*
X155437900Y-98091440D01*
X155412500Y-98060960D01*
X155392180Y-98025400D01*
X155382020Y-97984760D01*
X155379480Y-97977140D01*
X155379480Y-97931420D01*
X155384560Y-97888240D01*
X155397260Y-97847600D01*
X155417580Y-97812040D01*
X155442980Y-97781560D01*
X155473460Y-97761240D01*
X155493780Y-97751080D01*
X155531880Y-97740920D01*
X155572520Y-97738380D01*
X155615700Y-97743460D01*
X155653800Y-97753620D01*
X155658880Y-97756160D01*
X155676660Y-97766320D01*
X155696980Y-97781560D01*
X155714760Y-97796800D01*
X155730000Y-97814580D01*
X155732540Y-97822200D01*
X155737620Y-97827280D01*
X155737620Y-97832360D01*
X155732540Y-97837440D01*
X155722380Y-97842520D01*
X155704600Y-97852680D01*
X155696980Y-97855220D01*
X155656340Y-97875540D01*
X155630940Y-97850140D01*
X155618240Y-97837440D01*
X155608080Y-97829820D01*
X155600460Y-97827280D01*
X155585220Y-97827280D01*
X155580140Y-97827280D01*
X155552200Y-97829820D01*
X155531880Y-97839980D01*
X155514100Y-97860300D01*
X155506480Y-97873000D01*
X155498860Y-97898400D01*
X155493780Y-97931420D01*
X155493780Y-97961900D01*
X155498860Y-97992380D01*
X155503940Y-98005080D01*
X155519180Y-98027940D01*
X155539500Y-98043180D01*
X155564900Y-98050800D01*
X155590300Y-98053340D01*
X155613160Y-98045720D01*
X155636020Y-98030480D01*
X155646180Y-98017780D01*
X155656340Y-98007620D01*
X155656340Y-98002540D01*
X155658880Y-98000000D01*
X155666500Y-98002540D01*
X155679200Y-98007620D01*
X155696980Y-98015240D01*
X155714760Y-98025400D01*
X155727460Y-98033020D01*
X155737620Y-98038100D01*
X155737620Y-98038100D01*
X155737620Y-98038100D01*
G36*
X156786640Y-97646940D02*
X156786640Y-97662180D01*
X156786640Y-97682500D01*
X156786640Y-97710440D01*
X156786640Y-97735840D01*
X156786640Y-97824740D01*
X156761240Y-97827280D01*
X156733300Y-97829820D01*
X156733300Y-97944120D01*
X156730760Y-98058420D01*
X156657100Y-98058420D01*
X156580900Y-98058420D01*
X156580900Y-97944120D01*
X156580900Y-97824740D01*
X156560580Y-97827280D01*
X156545340Y-97827280D01*
X156535180Y-97827280D01*
X156532640Y-97827280D01*
X156530100Y-97824740D01*
X156527560Y-97817120D01*
X156527560Y-97801880D01*
X156527560Y-97779020D01*
X156527560Y-97751080D01*
X156527560Y-97725680D01*
X156527560Y-97690120D01*
X156527560Y-97662180D01*
X156527560Y-97641860D01*
X156530100Y-97629160D01*
X156530100Y-97619000D01*
X156532640Y-97613920D01*
X156535180Y-97611380D01*
X156537720Y-97608840D01*
X156540260Y-97606300D01*
X156545340Y-97603760D01*
X156555500Y-97603760D01*
X156568200Y-97601220D01*
X156588520Y-97601220D01*
X156613920Y-97601220D01*
X156649480Y-97601220D01*
X156657100Y-97601220D01*
X156695200Y-97601220D01*
X156725680Y-97601220D01*
X156748540Y-97603760D01*
X156766320Y-97603760D01*
X156776480Y-97608840D01*
X156784100Y-97613920D01*
X156786640Y-97619000D01*
X156786640Y-97629160D01*
X156786640Y-97639320D01*
X156786640Y-97646940D01*
X156786640Y-97646940D01*
X156786640Y-97646940D01*
G37*
X156786640Y-97646940D02*
X156786640Y-97662180D01*
X156786640Y-97682500D01*
X156786640Y-97710440D01*
X156786640Y-97735840D01*
X156786640Y-97824740D01*
X156761240Y-97827280D01*
X156733300Y-97829820D01*
X156733300Y-97944120D01*
X156730760Y-98058420D01*
X156657100Y-98058420D01*
X156580900Y-98058420D01*
X156580900Y-97944120D01*
X156580900Y-97824740D01*
X156560580Y-97827280D01*
X156545340Y-97827280D01*
X156535180Y-97827280D01*
X156532640Y-97827280D01*
X156530100Y-97824740D01*
X156527560Y-97817120D01*
X156527560Y-97801880D01*
X156527560Y-97779020D01*
X156527560Y-97751080D01*
X156527560Y-97725680D01*
X156527560Y-97690120D01*
X156527560Y-97662180D01*
X156527560Y-97641860D01*
X156530100Y-97629160D01*
X156530100Y-97619000D01*
X156532640Y-97613920D01*
X156535180Y-97611380D01*
X156537720Y-97608840D01*
X156540260Y-97606300D01*
X156545340Y-97603760D01*
X156555500Y-97603760D01*
X156568200Y-97601220D01*
X156588520Y-97601220D01*
X156613920Y-97601220D01*
X156649480Y-97601220D01*
X156657100Y-97601220D01*
X156695200Y-97601220D01*
X156725680Y-97601220D01*
X156748540Y-97603760D01*
X156766320Y-97603760D01*
X156776480Y-97608840D01*
X156784100Y-97613920D01*
X156786640Y-97619000D01*
X156786640Y-97629160D01*
X156786640Y-97639320D01*
X156786640Y-97646940D01*
X156786640Y-97646940D01*
G36*
X156723140Y-97512320D02*
X156720600Y-97532640D01*
X156710440Y-97550420D01*
X156692660Y-97563120D01*
X156669800Y-97573280D01*
X156669800Y-97573280D01*
X156654560Y-97573280D01*
X156636780Y-97570740D01*
X156634240Y-97568200D01*
X156621540Y-97563120D01*
X156613920Y-97560580D01*
X156613920Y-97560580D01*
X156608840Y-97558040D01*
X156603760Y-97547880D01*
X156601220Y-97545340D01*
X156591060Y-97519940D01*
X156591060Y-97497080D01*
X156598680Y-97474220D01*
X156611380Y-97456440D01*
X156631700Y-97446280D01*
X156657100Y-97441200D01*
X156659640Y-97438660D01*
X156682500Y-97443740D01*
X156702820Y-97456440D01*
X156715520Y-97471680D01*
X156723140Y-97489460D01*
X156723140Y-97512320D01*
X156723140Y-97512320D01*
X156723140Y-97512320D01*
G37*
X156723140Y-97512320D02*
X156720600Y-97532640D01*
X156710440Y-97550420D01*
X156692660Y-97563120D01*
X156669800Y-97573280D01*
X156669800Y-97573280D01*
X156654560Y-97573280D01*
X156636780Y-97570740D01*
X156634240Y-97568200D01*
X156621540Y-97563120D01*
X156613920Y-97560580D01*
X156613920Y-97560580D01*
X156608840Y-97558040D01*
X156603760Y-97547880D01*
X156601220Y-97545340D01*
X156591060Y-97519940D01*
X156591060Y-97497080D01*
X156598680Y-97474220D01*
X156611380Y-97456440D01*
X156631700Y-97446280D01*
X156657100Y-97441200D01*
X156659640Y-97438660D01*
X156682500Y-97443740D01*
X156702820Y-97456440D01*
X156715520Y-97471680D01*
X156723140Y-97489460D01*
X156723140Y-97512320D01*
X156723140Y-97512320D01*
G36*
X159075180Y-97748540D02*
X159072640Y-97796800D01*
X159062480Y-97842520D01*
X159044700Y-97885700D01*
X159034540Y-97903480D01*
X159019300Y-97923800D01*
X159004060Y-97941580D01*
X159001520Y-97944120D01*
X158963420Y-97974600D01*
X158922780Y-97997460D01*
X158874520Y-98007620D01*
X158826260Y-98012700D01*
X158778000Y-98007620D01*
X158775460Y-98007620D01*
X158732280Y-97997460D01*
X158694180Y-97977140D01*
X158663700Y-97946660D01*
X158638300Y-97911100D01*
X158620520Y-97865380D01*
X158612900Y-97839980D01*
X158607820Y-97827280D01*
X158671320Y-97827280D01*
X158732280Y-97827280D01*
X158737360Y-97847600D01*
X158742440Y-97867920D01*
X158757680Y-97885700D01*
X158772920Y-97900940D01*
X158775460Y-97900940D01*
X158785620Y-97906020D01*
X158800860Y-97908560D01*
X158813560Y-97911100D01*
X158846580Y-97913640D01*
X158877060Y-97906020D01*
X158902460Y-97888240D01*
X158922780Y-97865380D01*
X158938020Y-97832360D01*
X158948180Y-97791720D01*
X158948180Y-97791720D01*
X158950720Y-97756160D01*
X158950720Y-97718060D01*
X158943100Y-97682500D01*
X158932940Y-97654560D01*
X158930400Y-97652020D01*
X158915160Y-97626620D01*
X158892300Y-97611380D01*
X158869440Y-97601220D01*
X158836420Y-97598680D01*
X158805940Y-97601220D01*
X158780540Y-97611380D01*
X158757680Y-97629160D01*
X158744980Y-97646940D01*
X158737360Y-97664720D01*
X158734820Y-97674880D01*
X158737360Y-97679960D01*
X158750060Y-97679960D01*
X158752600Y-97682500D01*
X158770380Y-97682500D01*
X158722120Y-97730760D01*
X158673860Y-97779020D01*
X158625600Y-97730760D01*
X158577340Y-97682500D01*
X158595120Y-97682500D01*
X158610360Y-97679960D01*
X158617980Y-97669800D01*
X158617980Y-97657100D01*
X158620520Y-97644400D01*
X158628140Y-97626620D01*
X158640840Y-97606300D01*
X158651000Y-97585980D01*
X158663700Y-97565660D01*
X158676400Y-97552960D01*
X158709420Y-97527560D01*
X158747520Y-97509780D01*
X158788160Y-97499620D01*
X158833880Y-97494540D01*
X158877060Y-97499620D01*
X158922780Y-97512320D01*
X158950720Y-97525020D01*
X158986280Y-97547880D01*
X159016760Y-97578360D01*
X159039620Y-97613920D01*
X159057400Y-97657100D01*
X159070100Y-97700280D01*
X159075180Y-97748540D01*
X159075180Y-97748540D01*
X159075180Y-97748540D01*
G37*
X159075180Y-97748540D02*
X159072640Y-97796800D01*
X159062480Y-97842520D01*
X159044700Y-97885700D01*
X159034540Y-97903480D01*
X159019300Y-97923800D01*
X159004060Y-97941580D01*
X159001520Y-97944120D01*
X158963420Y-97974600D01*
X158922780Y-97997460D01*
X158874520Y-98007620D01*
X158826260Y-98012700D01*
X158778000Y-98007620D01*
X158775460Y-98007620D01*
X158732280Y-97997460D01*
X158694180Y-97977140D01*
X158663700Y-97946660D01*
X158638300Y-97911100D01*
X158620520Y-97865380D01*
X158612900Y-97839980D01*
X158607820Y-97827280D01*
X158671320Y-97827280D01*
X158732280Y-97827280D01*
X158737360Y-97847600D01*
X158742440Y-97867920D01*
X158757680Y-97885700D01*
X158772920Y-97900940D01*
X158775460Y-97900940D01*
X158785620Y-97906020D01*
X158800860Y-97908560D01*
X158813560Y-97911100D01*
X158846580Y-97913640D01*
X158877060Y-97906020D01*
X158902460Y-97888240D01*
X158922780Y-97865380D01*
X158938020Y-97832360D01*
X158948180Y-97791720D01*
X158948180Y-97791720D01*
X158950720Y-97756160D01*
X158950720Y-97718060D01*
X158943100Y-97682500D01*
X158932940Y-97654560D01*
X158930400Y-97652020D01*
X158915160Y-97626620D01*
X158892300Y-97611380D01*
X158869440Y-97601220D01*
X158836420Y-97598680D01*
X158805940Y-97601220D01*
X158780540Y-97611380D01*
X158757680Y-97629160D01*
X158744980Y-97646940D01*
X158737360Y-97664720D01*
X158734820Y-97674880D01*
X158737360Y-97679960D01*
X158750060Y-97679960D01*
X158752600Y-97682500D01*
X158770380Y-97682500D01*
X158722120Y-97730760D01*
X158673860Y-97779020D01*
X158625600Y-97730760D01*
X158577340Y-97682500D01*
X158595120Y-97682500D01*
X158610360Y-97679960D01*
X158617980Y-97669800D01*
X158617980Y-97657100D01*
X158620520Y-97644400D01*
X158628140Y-97626620D01*
X158640840Y-97606300D01*
X158651000Y-97585980D01*
X158663700Y-97565660D01*
X158676400Y-97552960D01*
X158709420Y-97527560D01*
X158747520Y-97509780D01*
X158788160Y-97499620D01*
X158833880Y-97494540D01*
X158877060Y-97499620D01*
X158922780Y-97512320D01*
X158950720Y-97525020D01*
X158986280Y-97547880D01*
X159016760Y-97578360D01*
X159039620Y-97613920D01*
X159057400Y-97657100D01*
X159070100Y-97700280D01*
X159075180Y-97748540D01*
X159075180Y-97748540D01*
D10*
X146975000Y-108750000D02*
X146975000Y-108250000D01*
X146025000Y-108250000D02*
X146025000Y-108750000D01*
X151025000Y-104000000D02*
X151025000Y-104500000D01*
X151975000Y-104500000D02*
X151975000Y-104000000D01*
X142750000Y-107225000D02*
X143250000Y-107225000D01*
X143250000Y-106275000D02*
X142750000Y-106275000D01*
X142750000Y-105975000D02*
X143250000Y-105975000D01*
X143250000Y-105025000D02*
X142750000Y-105025000D01*
X145050000Y-110850000D02*
X145050000Y-108950000D01*
X143950000Y-110850000D02*
X143950000Y-108950000D01*
X144500000Y-109950000D02*
X144500000Y-109500000D01*
X144250000Y-110000000D02*
X144750000Y-110000000D01*
X144500000Y-110000000D02*
X144250000Y-109750000D01*
X144250000Y-109750000D02*
X144750000Y-109750000D01*
X144750000Y-109750000D02*
X144500000Y-110000000D01*
X132650000Y-98884000D02*
X124014000Y-98884000D01*
X141032000Y-98884000D02*
X135952000Y-98884000D01*
X132650000Y-111076000D02*
X124014000Y-111076000D01*
X141032000Y-111076000D02*
X135952000Y-111076000D01*
X124014000Y-111076000D02*
X124014000Y-98884000D01*
X141032000Y-98884000D02*
X141032000Y-111076000D01*
X155700000Y-99700000D02*
X155700000Y-101250000D01*
X157000000Y-99700000D02*
X155700000Y-99700000D01*
X161191000Y-101123000D02*
X167033000Y-101123000D01*
X167033000Y-101123000D02*
X167033000Y-101377000D01*
X167033000Y-101377000D02*
X161191000Y-101377000D01*
X161191000Y-101377000D02*
X161191000Y-101250000D01*
X161191000Y-101250000D02*
X167033000Y-101250000D01*
X158524000Y-100996000D02*
X158143000Y-100996000D01*
X158524000Y-101504000D02*
X158143000Y-101504000D01*
X158524000Y-103536000D02*
X158143000Y-103536000D01*
X158524000Y-104044000D02*
X158143000Y-104044000D01*
X158524000Y-106076000D02*
X158143000Y-106076000D01*
X158524000Y-106584000D02*
X158143000Y-106584000D01*
X158524000Y-109124000D02*
X158143000Y-109124000D01*
X158524000Y-108616000D02*
X158143000Y-108616000D01*
X158524000Y-99980000D02*
X161064000Y-99980000D01*
X158524000Y-102520000D02*
X161064000Y-102520000D01*
X158524000Y-102520000D02*
X158524000Y-105060000D01*
X158524000Y-105060000D02*
X161064000Y-105060000D01*
X161064000Y-103536000D02*
X167160000Y-103536000D01*
X167160000Y-103536000D02*
X167160000Y-104044000D01*
X167160000Y-104044000D02*
X161064000Y-104044000D01*
X161064000Y-105060000D02*
X161064000Y-102520000D01*
X161064000Y-102520000D02*
X161064000Y-99980000D01*
X167160000Y-101504000D02*
X161064000Y-101504000D01*
X167160000Y-100996000D02*
X167160000Y-101504000D01*
X161064000Y-100996000D02*
X167160000Y-100996000D01*
X158524000Y-102520000D02*
X161064000Y-102520000D01*
X158524000Y-99980000D02*
X158524000Y-102520000D01*
X158524000Y-107600000D02*
X161064000Y-107600000D01*
X158524000Y-107600000D02*
X158524000Y-110140000D01*
X158524000Y-110140000D02*
X161064000Y-110140000D01*
X161064000Y-108616000D02*
X167160000Y-108616000D01*
X167160000Y-108616000D02*
X167160000Y-109124000D01*
X167160000Y-109124000D02*
X161064000Y-109124000D01*
X161064000Y-110140000D02*
X161064000Y-107600000D01*
X161064000Y-107600000D02*
X161064000Y-105060000D01*
X167160000Y-106584000D02*
X161064000Y-106584000D01*
X167160000Y-106076000D02*
X167160000Y-106584000D01*
X161064000Y-106076000D02*
X167160000Y-106076000D01*
X158524000Y-107600000D02*
X161064000Y-107600000D01*
X158524000Y-105060000D02*
X158524000Y-107600000D01*
X158524000Y-105060000D02*
X161064000Y-105060000D01*
X143525000Y-108750000D02*
X143525000Y-108250000D01*
X142475000Y-108250000D02*
X142475000Y-108750000D01*
X150275000Y-110000000D02*
X150275000Y-109500000D01*
X149225000Y-109500000D02*
X149225000Y-110000000D01*
X153775000Y-110000000D02*
X153775000Y-109500000D01*
X152725000Y-109500000D02*
X152725000Y-110000000D01*
X146000000Y-104000000D02*
X147000000Y-103000000D01*
X146000000Y-103000000D02*
X150000000Y-103000000D01*
X150000000Y-103000000D02*
X150000000Y-107000000D01*
X150000000Y-107000000D02*
X146000000Y-107000000D01*
X146000000Y-107000000D02*
X146000000Y-103000000D01*
X151100000Y-109450000D02*
X151900000Y-109450000D01*
X151900000Y-109950000D02*
X151100000Y-109950000D01*
X151100000Y-109950000D02*
X151500000Y-109450000D01*
X151500000Y-109450000D02*
X151900000Y-109950000D01*
X151100000Y-110550000D02*
X151100000Y-108950000D01*
X151100000Y-108950000D02*
X151900000Y-108950000D01*
X151900000Y-108950000D02*
X151900000Y-110550000D01*
X151900000Y-110550000D02*
X151100000Y-110550000D01*
X148107143Y-108666666D02*
X148154762Y-108714285D01*
X148202381Y-108857142D01*
X148202381Y-108952380D01*
X148154762Y-109095238D01*
X148059524Y-109190476D01*
X147964286Y-109238095D01*
X147773810Y-109285714D01*
X147630952Y-109285714D01*
X147440476Y-109238095D01*
X147345238Y-109190476D01*
X147250000Y-109095238D01*
X147202381Y-108952380D01*
X147202381Y-108857142D01*
X147250000Y-108714285D01*
X147297619Y-108666666D01*
X148202381Y-107714285D02*
X148202381Y-108285714D01*
X148202381Y-108000000D02*
X147202381Y-108000000D01*
X147345238Y-108095238D01*
X147440476Y-108190476D01*
X147488095Y-108285714D01*
X153107143Y-104416666D02*
X153154762Y-104464285D01*
X153202381Y-104607142D01*
X153202381Y-104702380D01*
X153154762Y-104845238D01*
X153059524Y-104940476D01*
X152964286Y-104988095D01*
X152773810Y-105035714D01*
X152630952Y-105035714D01*
X152440476Y-104988095D01*
X152345238Y-104940476D01*
X152250000Y-104845238D01*
X152202381Y-104702380D01*
X152202381Y-104607142D01*
X152250000Y-104464285D01*
X152297619Y-104416666D01*
X152297619Y-104035714D02*
X152250000Y-103988095D01*
X152202381Y-103892857D01*
X152202381Y-103654761D01*
X152250000Y-103559523D01*
X152297619Y-103511904D01*
X152392857Y-103464285D01*
X152488095Y-103464285D01*
X152630952Y-103511904D01*
X153202381Y-104083333D01*
X153202381Y-103464285D01*
X142833334Y-104607143D02*
X142785715Y-104654762D01*
X142642858Y-104702381D01*
X142547620Y-104702381D01*
X142404762Y-104654762D01*
X142309524Y-104559524D01*
X142261905Y-104464286D01*
X142214286Y-104273810D01*
X142214286Y-104130952D01*
X142261905Y-103940476D01*
X142309524Y-103845238D01*
X142404762Y-103750000D01*
X142547620Y-103702381D01*
X142642858Y-103702381D01*
X142785715Y-103750000D01*
X142833334Y-103797619D01*
X143166667Y-103702381D02*
X143785715Y-103702381D01*
X143452381Y-104083333D01*
X143595239Y-104083333D01*
X143690477Y-104130952D01*
X143738096Y-104178571D01*
X143785715Y-104273810D01*
X143785715Y-104511905D01*
X143738096Y-104607143D01*
X143690477Y-104654762D01*
X143595239Y-104702381D01*
X143309524Y-104702381D01*
X143214286Y-104654762D01*
X143166667Y-104607143D01*
X142833334Y-103357143D02*
X142785715Y-103404762D01*
X142642858Y-103452381D01*
X142547620Y-103452381D01*
X142404762Y-103404762D01*
X142309524Y-103309524D01*
X142261905Y-103214286D01*
X142214286Y-103023810D01*
X142214286Y-102880952D01*
X142261905Y-102690476D01*
X142309524Y-102595238D01*
X142404762Y-102500000D01*
X142547620Y-102452381D01*
X142642858Y-102452381D01*
X142785715Y-102500000D01*
X142833334Y-102547619D01*
X143690477Y-102785714D02*
X143690477Y-103452381D01*
X143452381Y-102404762D02*
X143214286Y-103119048D01*
X143833334Y-103119048D01*
X143702381Y-110988095D02*
X142702381Y-110988095D01*
X142702381Y-110750000D01*
X142750000Y-110607142D01*
X142845238Y-110511904D01*
X142940476Y-110464285D01*
X143130952Y-110416666D01*
X143273810Y-110416666D01*
X143464286Y-110464285D01*
X143559524Y-110511904D01*
X143654762Y-110607142D01*
X143702381Y-110750000D01*
X143702381Y-110988095D01*
X143702381Y-109464285D02*
X143702381Y-110035714D01*
X143702381Y-109750000D02*
X142702381Y-109750000D01*
X142845238Y-109845238D01*
X142940476Y-109940476D01*
X142988095Y-110035714D01*
X141666667Y-99202381D02*
X141666667Y-99916667D01*
X141619047Y-100059524D01*
X141523809Y-100154762D01*
X141380952Y-100202381D01*
X141285714Y-100202381D01*
X142666667Y-100202381D02*
X142095238Y-100202381D01*
X142380952Y-100202381D02*
X142380952Y-99202381D01*
X142285714Y-99345238D01*
X142190476Y-99440476D01*
X142095238Y-99488095D01*
X154166667Y-99452381D02*
X154166667Y-100166667D01*
X154119047Y-100309524D01*
X154023809Y-100404762D01*
X153880952Y-100452381D01*
X153785714Y-100452381D01*
X154595238Y-99547619D02*
X154642857Y-99500000D01*
X154738095Y-99452381D01*
X154976191Y-99452381D01*
X155071429Y-99500000D01*
X155119048Y-99547619D01*
X155166667Y-99642857D01*
X155166667Y-99738095D01*
X155119048Y-99880952D01*
X154547619Y-100452381D01*
X155166667Y-100452381D01*
X142202381Y-108666666D02*
X141726190Y-109000000D01*
X142202381Y-109238095D02*
X141202381Y-109238095D01*
X141202381Y-108857142D01*
X141250000Y-108761904D01*
X141297619Y-108714285D01*
X141392857Y-108666666D01*
X141535714Y-108666666D01*
X141630952Y-108714285D01*
X141678571Y-108761904D01*
X141726190Y-108857142D01*
X141726190Y-109238095D01*
X142202381Y-107714285D02*
X142202381Y-108285714D01*
X142202381Y-108000000D02*
X141202381Y-108000000D01*
X141345238Y-108095238D01*
X141440476Y-108190476D01*
X141488095Y-108285714D01*
X150202381Y-112166666D02*
X149726190Y-112500000D01*
X150202381Y-112738095D02*
X149202381Y-112738095D01*
X149202381Y-112357142D01*
X149250000Y-112261904D01*
X149297619Y-112214285D01*
X149392857Y-112166666D01*
X149535714Y-112166666D01*
X149630952Y-112214285D01*
X149678571Y-112261904D01*
X149726190Y-112357142D01*
X149726190Y-112738095D01*
X149297619Y-111785714D02*
X149250000Y-111738095D01*
X149202381Y-111642857D01*
X149202381Y-111404761D01*
X149250000Y-111309523D01*
X149297619Y-111261904D01*
X149392857Y-111214285D01*
X149488095Y-111214285D01*
X149630952Y-111261904D01*
X150202381Y-111833333D01*
X150202381Y-111214285D01*
X153702381Y-112166666D02*
X153226190Y-112500000D01*
X153702381Y-112738095D02*
X152702381Y-112738095D01*
X152702381Y-112357142D01*
X152750000Y-112261904D01*
X152797619Y-112214285D01*
X152892857Y-112166666D01*
X153035714Y-112166666D01*
X153130952Y-112214285D01*
X153178571Y-112261904D01*
X153226190Y-112357142D01*
X153226190Y-112738095D01*
X152702381Y-111833333D02*
X152702381Y-111214285D01*
X153083333Y-111547619D01*
X153083333Y-111404761D01*
X153130952Y-111309523D01*
X153178571Y-111261904D01*
X153273810Y-111214285D01*
X153511905Y-111214285D01*
X153607143Y-111261904D01*
X153654762Y-111309523D01*
X153702381Y-111404761D01*
X153702381Y-111690476D01*
X153654762Y-111785714D01*
X153607143Y-111833333D01*
X145288095Y-101052381D02*
X145288095Y-101861905D01*
X145335714Y-101957143D01*
X145383333Y-102004762D01*
X145478571Y-102052381D01*
X145669048Y-102052381D01*
X145764286Y-102004762D01*
X145811905Y-101957143D01*
X145859524Y-101861905D01*
X145859524Y-101052381D01*
X146859524Y-102052381D02*
X146288095Y-102052381D01*
X146573809Y-102052381D02*
X146573809Y-101052381D01*
X146478571Y-101195238D01*
X146383333Y-101290476D01*
X146288095Y-101338095D01*
X151952381Y-112738095D02*
X150952381Y-112738095D01*
X150952381Y-112500000D01*
X151000000Y-112357142D01*
X151095238Y-112261904D01*
X151190476Y-112214285D01*
X151380952Y-112166666D01*
X151523810Y-112166666D01*
X151714286Y-112214285D01*
X151809524Y-112261904D01*
X151904762Y-112357142D01*
X151952381Y-112500000D01*
X151952381Y-112738095D01*
X151047619Y-111785714D02*
X151000000Y-111738095D01*
X150952381Y-111642857D01*
X150952381Y-111404761D01*
X151000000Y-111309523D01*
X151047619Y-111261904D01*
X151142857Y-111214285D01*
X151238095Y-111214285D01*
X151380952Y-111261904D01*
X151952381Y-111833333D01*
X151952381Y-111214285D01*
M02*
